<?xml version="1.0" encoding="UTF-8" standalone="no"?>
<!-- Created with Inkscape (http://www.inkscape.org/) -->

<svg
   width="243.84mm"
   height="116.83998mm"
   viewBox="0 0 243.84 116.83998"
   version="1.1"
   id="svg1"
   inkscape:version="1.3.2 (091e20e, 2023-11-25, custom)"
   sodipodi:docname="icl_main_paper_fig.svg"
   xmlns:inkscape="http://www.inkscape.org/namespaces/inkscape"
   xmlns:sodipodi="http://sodipodi.sourceforge.net/DTD/sodipodi-0.dtd"
   xmlns="http://www.w3.org/2000/svg"
   xmlns:svg="http://www.w3.org/2000/svg">
  <sodipodi:namedview
     id="namedview1"
     pagecolor="#ffffff"
     bordercolor="#000000"
     borderopacity="0.25"
     inkscape:showpageshadow="2"
     inkscape:pageopacity="0.0"
     inkscape:pagecheckerboard="0"
     inkscape:deskcolor="#d1d1d1"
     inkscape:document-units="mm"
     inkscape:zoom="0.76167929"
     inkscape:cx="349.88479"
     inkscape:cy="298.68214"
     inkscape:window-width="1920"
     inkscape:window-height="1111"
     inkscape:window-x="-9"
     inkscape:window-y="-9"
     inkscape:window-maximized="1"
     inkscape:current-layer="layer1" />
  <defs
     id="defs1">
    <clipPath
       clipPathUnits="userSpaceOnUse"
       id="clipPath3">
      <path
         d="M 0,9.1553e-5 H 691.2 V 331.20009 H 0 Z"
         clip-rule="evenodd"
         id="path3" />
    </clipPath>
    <clipPath
       clipPathUnits="userSpaceOnUse"
       id="clipPath5">
      <path
         d="M 0,1.5259e-4 H 691.2 V 331.20015 H 0 Z"
         clip-rule="evenodd"
         id="path5" />
    </clipPath>
    <clipPath
       clipPathUnits="userSpaceOnUse"
       id="clipPath6">
      <path
         d="M 1.03e-5,0 H 691.20001 V 331.2 H 1.03e-5 Z"
         transform="matrix(1,0,0,-1,-70.608002,150.07)"
         clip-rule="evenodd"
         id="path6" />
    </clipPath>
    <clipPath
       clipPathUnits="userSpaceOnUse"
       id="clipPath8">
      <path
         d="M -3.0518e-5,9.1553e-5 H 691.19997 V 331.20009 H -3.0518e-5 Z"
         clip-rule="evenodd"
         id="path8" />
    </clipPath>
    <clipPath
       clipPathUnits="userSpaceOnUse"
       id="clipPath10">
      <path
         d="M 0,1.2207e-4 H 691.2 V 331.20012 H 0 Z"
         clip-rule="evenodd"
         id="path10" />
    </clipPath>
    <clipPath
       clipPathUnits="userSpaceOnUse"
       id="clipPath12">
      <path
         d="M -6.1035e-5,9.1553e-5 H 691.19994 V 331.20009 H -6.1035e-5 Z"
         clip-rule="evenodd"
         id="path12" />
    </clipPath>
    <clipPath
       clipPathUnits="userSpaceOnUse"
       id="clipPath14">
      <path
         d="M -3.0518e-5,1.2207e-4 H 691.19997 V 331.20012 H -3.0518e-5 Z"
         clip-rule="evenodd"
         id="path14" />
    </clipPath>
    <clipPath
       clipPathUnits="userSpaceOnUse"
       id="clipPath16">
      <path
         d="M -3.0518e-5,9.1553e-5 H 691.19997 V 331.20009 H -3.0518e-5 Z"
         clip-rule="evenodd"
         id="path16" />
    </clipPath>
    <clipPath
       clipPathUnits="userSpaceOnUse"
       id="clipPath18">
      <path
         d="M 0,9.1553e-5 H 691.2 V 331.20009 H 0 Z"
         clip-rule="evenodd"
         id="path18" />
    </clipPath>
    <clipPath
       clipPathUnits="userSpaceOnUse"
       id="clipPath20">
      <path
         d="M 0,1.2207e-4 H 691.2 V 331.20012 H 0 Z"
         clip-rule="evenodd"
         id="path20" />
    </clipPath>
    <clipPath
       clipPathUnits="userSpaceOnUse"
       id="clipPath22">
      <path
         d="M 0,1.2207e-4 H 691.2 V 331.20012 H 0 Z"
         clip-rule="evenodd"
         id="path22" />
    </clipPath>
    <clipPath
       clipPathUnits="userSpaceOnUse"
       id="clipPath24">
      <path
         d="M 0,1.2207e-4 H 691.2 V 331.20012 H 0 Z"
         clip-rule="evenodd"
         id="path24" />
    </clipPath>
    <clipPath
       clipPathUnits="userSpaceOnUse"
       id="clipPath26">
      <path
         d="M -3.0518e-5,1.2207e-4 H 691.19997 V 331.20012 H -3.0518e-5 Z"
         clip-rule="evenodd"
         id="path26" />
    </clipPath>
    <clipPath
       clipPathUnits="userSpaceOnUse"
       id="clipPath28">
      <path
         d="M 3.0518e-5,1.5259e-4 H 691.20003 V 331.20015 H 3.0518e-5 Z"
         clip-rule="evenodd"
         id="path28" />
    </clipPath>
    <clipPath
       clipPathUnits="userSpaceOnUse"
       id="clipPath30">
      <path
         d="M 0,1.2207e-4 H 691.2 V 331.20012 H 0 Z"
         clip-rule="evenodd"
         id="path30" />
    </clipPath>
    <clipPath
       clipPathUnits="userSpaceOnUse"
       id="clipPath32">
      <path
         d="M 3.0518e-5,1.5259e-4 H 691.20003 V 331.20015 H 3.0518e-5 Z"
         clip-rule="evenodd"
         id="path32" />
    </clipPath>
    <clipPath
       clipPathUnits="userSpaceOnUse"
       id="clipPath34">
      <path
         d="M 0,1.2207e-4 H 691.2 V 331.20012 H 0 Z"
         clip-rule="evenodd"
         id="path34" />
    </clipPath>
    <clipPath
       clipPathUnits="userSpaceOnUse"
       id="clipPath36">
      <path
         d="M 0,1.2207e-4 H 691.2 V 331.20012 H 0 Z"
         clip-rule="evenodd"
         id="path36" />
    </clipPath>
    <clipPath
       clipPathUnits="userSpaceOnUse"
       id="clipPath38">
      <path
         d="M -3.0518e-5,1.8311e-4 H 691.19997 V 331.20018 H -3.0518e-5 Z"
         clip-rule="evenodd"
         id="path38" />
    </clipPath>
    <clipPath
       clipPathUnits="userSpaceOnUse"
       id="clipPath40">
      <path
         d="M 3.0518e-5,1.2207e-4 H 691.20003 V 331.20012 H 3.0518e-5 Z"
         clip-rule="evenodd"
         id="path40" />
    </clipPath>
    <clipPath
       clipPathUnits="userSpaceOnUse"
       id="clipPath42">
      <path
         d="M 0,9.1553e-5 H 691.2 V 331.20009 H 0 Z"
         clip-rule="evenodd"
         id="path42" />
    </clipPath>
    <clipPath
       clipPathUnits="userSpaceOnUse"
       id="clipPath44">
      <path
         d="M 0,1.2207e-4 H 691.2 V 331.20012 H 0 Z"
         clip-rule="evenodd"
         id="path44" />
    </clipPath>
    <clipPath
       clipPathUnits="userSpaceOnUse"
       id="clipPath46">
      <path
         d="M 0,9.1553e-5 H 691.2 V 331.20009 H 0 Z"
         clip-rule="evenodd"
         id="path46" />
    </clipPath>
    <clipPath
       clipPathUnits="userSpaceOnUse"
       id="clipPath48">
      <path
         d="M 0,6.1035e-5 H 691.2 V 331.20006 H 0 Z"
         clip-rule="evenodd"
         id="path48" />
    </clipPath>
    <clipPath
       clipPathUnits="userSpaceOnUse"
       id="clipPath50">
      <path
         d="M -3.0518e-5,9.1553e-5 H 691.19997 V 331.20009 H -3.0518e-5 Z"
         clip-rule="evenodd"
         id="path50" />
    </clipPath>
    <clipPath
       clipPathUnits="userSpaceOnUse"
       id="clipPath52">
      <path
         d="M 3.0518e-5,1.2207e-4 H 691.20003 V 331.20012 H 3.0518e-5 Z"
         clip-rule="evenodd"
         id="path52" />
    </clipPath>
    <clipPath
       clipPathUnits="userSpaceOnUse"
       id="clipPath54">
      <path
         d="M 0,1.2207e-4 H 691.2 V 331.20012 H 0 Z"
         clip-rule="evenodd"
         id="path54" />
    </clipPath>
    <clipPath
       clipPathUnits="userSpaceOnUse"
       id="clipPath56">
      <path
         d="M -6.1035e-5,9.1553e-5 H 691.19994 V 331.20009 H -6.1035e-5 Z"
         clip-rule="evenodd"
         id="path56" />
    </clipPath>
    <clipPath
       clipPathUnits="userSpaceOnUse"
       id="clipPath58">
      <path
         d="M 0,9.1553e-5 H 691.2 V 331.20009 H 0 Z"
         clip-rule="evenodd"
         id="path58" />
    </clipPath>
    <clipPath
       clipPathUnits="userSpaceOnUse"
       id="clipPath60">
      <path
         d="M -1.5259e-5,1.2207e-4 H 691.19998 V 331.20012 H -1.5259e-5 Z"
         clip-rule="evenodd"
         id="path60" />
    </clipPath>
    <clipPath
       clipPathUnits="userSpaceOnUse"
       id="clipPath62">
      <path
         d="M -3.0518e-5,9.1553e-5 H 691.19997 V 331.20009 H -3.0518e-5 Z"
         clip-rule="evenodd"
         id="path62" />
    </clipPath>
    <clipPath
       clipPathUnits="userSpaceOnUse"
       id="clipPath64">
      <path
         d="M 0,9.1553e-5 H 691.2 V 331.20009 H 0 Z"
         clip-rule="evenodd"
         id="path64" />
    </clipPath>
    <clipPath
       clipPathUnits="userSpaceOnUse"
       id="clipPath66">
      <path
         d="M 0,9.1553e-5 H 691.2 V 331.20009 H 0 Z"
         clip-rule="evenodd"
         id="path66" />
    </clipPath>
    <clipPath
       clipPathUnits="userSpaceOnUse"
       id="clipPath68">
      <path
         d="M 0,6.1035e-5 H 691.2 V 331.20006 H 0 Z"
         clip-rule="evenodd"
         id="path68" />
    </clipPath>
    <clipPath
       clipPathUnits="userSpaceOnUse"
       id="clipPath70">
      <path
         d="M 0,9.1553e-5 H 691.2 V 331.20009 H 0 Z"
         clip-rule="evenodd"
         id="path70" />
    </clipPath>
    <clipPath
       clipPathUnits="userSpaceOnUse"
       id="clipPath72">
      <path
         d="M -7.629e-6,1.2207e-4 H 691.19999 V 331.20012 H -7.629e-6 Z"
         clip-rule="evenodd"
         id="path72" />
    </clipPath>
    <clipPath
       clipPathUnits="userSpaceOnUse"
       id="clipPath74">
      <path
         d="M 0,1.2207e-4 H 691.2 V 331.20012 H 0 Z"
         clip-rule="evenodd"
         id="path74" />
    </clipPath>
    <clipPath
       clipPathUnits="userSpaceOnUse"
       id="clipPath76">
      <path
         d="M 0,1.2207e-4 H 691.2 V 331.20012 H 0 Z"
         clip-rule="evenodd"
         id="path76" />
    </clipPath>
    <clipPath
       clipPathUnits="userSpaceOnUse"
       id="clipPath78">
      <path
         d="M 0,9.1553e-5 H 691.2 V 331.20009 H 0 Z"
         clip-rule="evenodd"
         id="path78" />
    </clipPath>
    <clipPath
       clipPathUnits="userSpaceOnUse"
       id="clipPath80">
      <path
         d="M -7.629e-6,9.1553e-5 H 691.19999 V 331.20009 H -7.629e-6 Z"
         clip-rule="evenodd"
         id="path80" />
    </clipPath>
    <clipPath
       clipPathUnits="userSpaceOnUse"
       id="clipPath82">
      <path
         d="M 0,1.2207e-4 H 691.2 V 331.20012 H 0 Z"
         clip-rule="evenodd"
         id="path82" />
    </clipPath>
    <clipPath
       clipPathUnits="userSpaceOnUse"
       id="clipPath84">
      <path
         d="M -6.1035e-5,1.8311e-4 H 691.19994 V 331.20018 H -6.1035e-5 Z"
         clip-rule="evenodd"
         id="path84" />
    </clipPath>
    <clipPath
       clipPathUnits="userSpaceOnUse"
       id="clipPath86">
      <path
         d="M -6.1035e-5,1.2207e-4 H 691.19994 V 331.20012 H -6.1035e-5 Z"
         clip-rule="evenodd"
         id="path86" />
    </clipPath>
    <clipPath
       clipPathUnits="userSpaceOnUse"
       id="clipPath88">
      <path
         d="M 0,9.1553e-5 H 691.2 V 331.20009 H 0 Z"
         clip-rule="evenodd"
         id="path88" />
    </clipPath>
    <clipPath
       clipPathUnits="userSpaceOnUse"
       id="clipPath90">
      <path
         d="M 0,1.2207e-4 H 691.2 V 331.20012 H 0 Z"
         clip-rule="evenodd"
         id="path90" />
    </clipPath>
    <clipPath
       clipPathUnits="userSpaceOnUse"
       id="clipPath92">
      <path
         d="M 0,9.1553e-5 H 691.2 V 331.20009 H 0 Z"
         clip-rule="evenodd"
         id="path92" />
    </clipPath>
    <clipPath
       clipPathUnits="userSpaceOnUse"
       id="clipPath94">
      <path
         d="M -6.1035e-5,1.5259e-4 H 691.19994 V 331.20015 H -6.1035e-5 Z"
         clip-rule="evenodd"
         id="path94" />
    </clipPath>
    <clipPath
       clipPathUnits="userSpaceOnUse"
       id="clipPath96">
      <path
         d="M -6.1035e-5,1.2207e-4 H 691.19994 V 331.20012 H -6.1035e-5 Z"
         clip-rule="evenodd"
         id="path96" />
    </clipPath>
    <clipPath
       clipPathUnits="userSpaceOnUse"
       id="clipPath98">
      <path
         d="M -6.1035e-5,1.2207e-4 H 691.19994 V 331.20012 H -6.1035e-5 Z"
         clip-rule="evenodd"
         id="path98" />
    </clipPath>
    <clipPath
       clipPathUnits="userSpaceOnUse"
       id="clipPath100">
      <path
         d="M 0,1.8311e-4 H 691.2 V 331.20018 H 0 Z"
         clip-rule="evenodd"
         id="path100" />
    </clipPath>
    <clipPath
       clipPathUnits="userSpaceOnUse"
       id="clipPath102">
      <path
         d="M 0,1.8311e-4 H 691.2 V 331.20018 H 0 Z"
         clip-rule="evenodd"
         id="path102" />
    </clipPath>
    <clipPath
       clipPathUnits="userSpaceOnUse"
       id="clipPath104">
      <path
         d="M -6.1035e-5,1.2207e-4 H 691.19994 V 331.20012 H -6.1035e-5 Z"
         clip-rule="evenodd"
         id="path104" />
    </clipPath>
    <clipPath
       clipPathUnits="userSpaceOnUse"
       id="clipPath106">
      <path
         d="M -1.2207e-4,0 H 691.19988 V 331.2 H -1.2207e-4 Z"
         clip-rule="evenodd"
         id="path106" />
    </clipPath>
    <clipPath
       clipPathUnits="userSpaceOnUse"
       id="clipPath108">
      <path
         d="M -1.2207e-4,0 H 691.19988 V 331.2 H -1.2207e-4 Z"
         clip-rule="evenodd"
         id="path108" />
    </clipPath>
    <clipPath
       clipPathUnits="userSpaceOnUse"
       id="clipPath110">
      <path
         d="M -6.1035e-5,0 H 691.19994 V 331.2 H -6.1035e-5 Z"
         clip-rule="evenodd"
         id="path110" />
    </clipPath>
    <clipPath
       clipPathUnits="userSpaceOnUse"
       id="clipPath112">
      <path
         d="M -6.1035e-5,6.1035e-5 H 691.19994 V 331.20006 H -6.1035e-5 Z"
         clip-rule="evenodd"
         id="path112" />
    </clipPath>
    <clipPath
       clipPathUnits="userSpaceOnUse"
       id="clipPath114">
      <path
         d="M -6.1035e-5,9.1553e-5 H 691.19994 V 331.20009 H -6.1035e-5 Z"
         clip-rule="evenodd"
         id="path114" />
    </clipPath>
    <clipPath
       clipPathUnits="userSpaceOnUse"
       id="clipPath116">
      <path
         d="M -6.1035e-5,1.2207e-4 H 691.19994 V 331.20012 H -6.1035e-5 Z"
         clip-rule="evenodd"
         id="path116" />
    </clipPath>
    <clipPath
       clipPathUnits="userSpaceOnUse"
       id="clipPath118">
      <path
         d="M 6.1035e-5,1.5259e-4 H 691.20006 V 331.20015 H 6.1035e-5 Z"
         clip-rule="evenodd"
         id="path118" />
    </clipPath>
    <clipPath
       clipPathUnits="userSpaceOnUse"
       id="clipPath120">
      <path
         d="M -6.1035e-5,6.1035e-5 H 691.19994 V 331.20006 H -6.1035e-5 Z"
         clip-rule="evenodd"
         id="path120" />
    </clipPath>
    <clipPath
       clipPathUnits="userSpaceOnUse"
       id="clipPath122">
      <path
         d="M 0,9.1553e-5 H 691.2 V 331.20009 H 0 Z"
         clip-rule="evenodd"
         id="path122" />
    </clipPath>
    <clipPath
       clipPathUnits="userSpaceOnUse"
       id="clipPath124">
      <path
         d="M 0,9.1553e-5 H 691.2 V 331.20009 H 0 Z"
         clip-rule="evenodd"
         id="path124" />
    </clipPath>
    <clipPath
       clipPathUnits="userSpaceOnUse"
       id="clipPath126">
      <path
         d="M -6.1035e-5,6.1035e-5 H 691.19994 V 331.20006 H -6.1035e-5 Z"
         clip-rule="evenodd"
         id="path126" />
    </clipPath>
    <clipPath
       clipPathUnits="userSpaceOnUse"
       id="clipPath128">
      <path
         d="M -6.1035e-5,1.2207e-4 H 691.19994 V 331.20012 H -6.1035e-5 Z"
         clip-rule="evenodd"
         id="path128" />
    </clipPath>
    <clipPath
       clipPathUnits="userSpaceOnUse"
       id="clipPath130">
      <path
         d="M 0,9.1553e-5 H 691.2 V 331.20009 H 0 Z"
         clip-rule="evenodd"
         id="path130" />
    </clipPath>
    <clipPath
       clipPathUnits="userSpaceOnUse"
       id="clipPath132">
      <path
         d="M 0,9.1553e-5 H 691.2 V 331.20009 H 0 Z"
         clip-rule="evenodd"
         id="path132" />
    </clipPath>
    <clipPath
       clipPathUnits="userSpaceOnUse"
       id="clipPath134">
      <path
         d="M 0,6.1035e-5 H 691.2 V 331.20006 H 0 Z"
         clip-rule="evenodd"
         id="path134" />
    </clipPath>
    <clipPath
       clipPathUnits="userSpaceOnUse"
       id="clipPath136">
      <path
         d="M -6.1035e-5,9.1553e-5 H 691.19994 V 331.20009 H -6.1035e-5 Z"
         clip-rule="evenodd"
         id="path136" />
    </clipPath>
    <clipPath
       clipPathUnits="userSpaceOnUse"
       id="clipPath138">
      <path
         d="M 0,9.1553e-5 H 691.2 V 331.20009 H 0 Z"
         clip-rule="evenodd"
         id="path138" />
    </clipPath>
    <clipPath
       clipPathUnits="userSpaceOnUse"
       id="clipPath140">
      <path
         d="M -6.1035e-5,1.2207e-4 H 691.19994 V 331.20012 H -6.1035e-5 Z"
         clip-rule="evenodd"
         id="path140" />
    </clipPath>
    <clipPath
       clipPathUnits="userSpaceOnUse"
       id="clipPath142">
      <path
         d="M -6.1035e-5,6.1035e-5 H 691.19994 V 331.20006 H -6.1035e-5 Z"
         clip-rule="evenodd"
         id="path142" />
    </clipPath>
    <clipPath
       clipPathUnits="userSpaceOnUse"
       id="clipPath144">
      <path
         d="M -1.2207e-4,6.1035e-5 H 691.19988 V 331.20006 H -1.2207e-4 Z"
         clip-rule="evenodd"
         id="path144" />
    </clipPath>
    <clipPath
       clipPathUnits="userSpaceOnUse"
       id="clipPath146">
      <path
         d="M -6.1035e-5,6.1035e-5 H 691.19994 V 331.20006 H -6.1035e-5 Z"
         clip-rule="evenodd"
         id="path146" />
    </clipPath>
    <clipPath
       clipPathUnits="userSpaceOnUse"
       id="clipPath148">
      <path
         d="M -6.1035e-5,9.1553e-5 H 691.19994 V 331.20009 H -6.1035e-5 Z"
         clip-rule="evenodd"
         id="path148" />
    </clipPath>
    <clipPath
       clipPathUnits="userSpaceOnUse"
       id="clipPath150">
      <path
         d="M -6.1035e-5,9.1553e-5 H 691.19994 V 331.20009 H -6.1035e-5 Z"
         clip-rule="evenodd"
         id="path150" />
    </clipPath>
    <clipPath
       clipPathUnits="userSpaceOnUse"
       id="clipPath152">
      <path
         d="M -6.1035e-5,1.2207e-4 H 691.19994 V 331.20012 H -6.1035e-5 Z"
         clip-rule="evenodd"
         id="path152" />
    </clipPath>
    <clipPath
       clipPathUnits="userSpaceOnUse"
       id="clipPath154">
      <path
         d="M -6.1035e-5,1.2207e-4 H 691.19994 V 331.20012 H -6.1035e-5 Z"
         clip-rule="evenodd"
         id="path154" />
    </clipPath>
    <clipPath
       clipPathUnits="userSpaceOnUse"
       id="clipPath156">
      <path
         d="M 0,9.1553e-5 H 691.2 V 331.20009 H 0 Z"
         clip-rule="evenodd"
         id="path156" />
    </clipPath>
    <clipPath
       clipPathUnits="userSpaceOnUse"
       id="clipPath158">
      <path
         d="M 0,9.1553e-5 H 691.2 V 331.20009 H 0 Z"
         clip-rule="evenodd"
         id="path158" />
    </clipPath>
    <clipPath
       clipPathUnits="userSpaceOnUse"
       id="clipPath160">
      <path
         d="M -3.815e-6,9.1553e-5 H 691.2 V 331.20009 H -3.815e-6 Z"
         clip-rule="evenodd"
         id="path160" />
    </clipPath>
    <clipPath
       clipPathUnits="userSpaceOnUse"
       id="clipPath162">
      <path
         d="M 0,331.2 H 691.2 V 2.1362e-4 L 6.1035e-5,1.8311e-4"
         clip-rule="evenodd"
         id="path162" />
    </clipPath>
    <clipPath
       clipPathUnits="userSpaceOnUse"
       id="clipPath164">
      <path
         d="M -6.1035e-5,0 H 691.19994 V 331.2 H -6.1035e-5 Z"
         clip-rule="evenodd"
         id="path164" />
    </clipPath>
    <clipPath
       clipPathUnits="userSpaceOnUse"
       id="clipPath166">
      <path
         d="M 0,9.1553e-5 H 691.2 V 331.20009 H 0 Z"
         clip-rule="evenodd"
         id="path166" />
    </clipPath>
    <clipPath
       clipPathUnits="userSpaceOnUse"
       id="clipPath168">
      <path
         d="M 1.03e-5,0 H 691.20001 V 331.2 H 1.03e-5 Z"
         transform="matrix(1,0,0,-1,-435.79001,72.336002)"
         clip-rule="evenodd"
         id="path168" />
    </clipPath>
    <clipPath
       clipPathUnits="userSpaceOnUse"
       id="clipPath170">
      <path
         d="M 1.03e-5,0 H 691.20001 V 331.2 H 1.03e-5 Z"
         transform="matrix(1,0,0,-1,-456.43601,72.336002)"
         clip-rule="evenodd"
         id="path170" />
    </clipPath>
    <clipPath
       clipPathUnits="userSpaceOnUse"
       id="clipPath172">
      <path
         d="M -3.0518e-5,1.2207e-4 H 691.19997 V 331.20012 H -3.0518e-5 Z"
         clip-rule="evenodd"
         id="path172" />
    </clipPath>
    <clipPath
       clipPathUnits="userSpaceOnUse"
       id="clipPath174">
      <path
         d="M -3.0518e-5,1.2207e-4 H 691.19997 V 331.20012 H -3.0518e-5 Z"
         clip-rule="evenodd"
         id="path174" />
    </clipPath>
    <clipPath
       clipPathUnits="userSpaceOnUse"
       id="clipPath176">
      <path
         d="M 0,1.5259e-4 H 691.2 V 331.20015 H 0 Z"
         clip-rule="evenodd"
         id="path176" />
    </clipPath>
    <clipPath
       clipPathUnits="userSpaceOnUse"
       id="clipPath178">
      <path
         d="M -3.0518e-5,9.1553e-5 H 691.19997 V 331.20009 H -3.0518e-5 Z"
         clip-rule="evenodd"
         id="path178" />
    </clipPath>
  </defs>
  <g
     inkscape:label="Layer 1"
     inkscape:groupmode="layer"
     id="layer1"
     transform="translate(-12.435427,-69.320832)">
    <g
       id="g2"
       transform="matrix(0.26458333,0,0,0.26458333,12.435427,69.320843)">
      <path
         id="path2"
         d="M 0,-0.049957 H 691.25 V 331.20004 H 0 Z"
         style="fill:#ffffff;fill-opacity:1;fill-rule:evenodd;stroke:none"
         transform="matrix(1.3333333,0,0,-1.3333333,0,441.6)"
         clip-path="url(#clipPath3)" />
    </g>
    <g
       id="g3"
       transform="matrix(0.26458333,0,0,0.26458333,12.435427,69.320843)">
      <path
         id="path4"
         d="m 29.936,191.24 c 0,6.91 5.601,12.51 12.512,12.51 H 476.35 c 6.91,0 12.51,-5.6 12.51,-12.51 v -50.05 c 0,-6.91 -5.6,-12.51 -12.51,-12.51 H 42.448 c -6.911,0 -12.512,5.6 -12.512,12.51 z"
         style="fill:#cce9f8;fill-opacity:1;fill-rule:evenodd;stroke:#78206e;stroke-width:1.5;stroke-linecap:butt;stroke-linejoin:miter;stroke-miterlimit:10;stroke-dasharray:none;stroke-opacity:1"
         transform="matrix(1.3333333,0,0,-1.3333333,0,441.6)"
         clip-path="url(#clipPath5)" />
    </g>
    <g
       id="g5"
       transform="matrix(0.26458333,0,0,0.26458333,12.435427,69.320843)">
      <text
         id="text5"
         xml:space="preserve"
         transform="matrix(1.3333333,0,0,1.3333333,94.144,241.50667)"
         clip-path="url(#clipPath6)"><tspan
           style="font-style:italic;font-variant:normal;font-weight:normal;font-size:48.024px;font-family:Calibri;writing-mode:lr-tb;fill:#0d0d0d;fill-opacity:1;fill-rule:nonzero;stroke:none"
           x="0 25.068527 49.752865 74.437202 93.118538 117.89892 128.94444 139.50972 160.64027 177.11252 201.79684 226.48119 245.16252 259.28159 283.91788 300.39011 338.37711 361.14047"
           y="0"
           sodipodi:role="line"
           id="tspan5">Causal Transformer</tspan></text>
    </g>
    <g
       id="g6"
       transform="matrix(0.26458333,0,0,0.26458333,12.435427,69.320843)">
      <path
         id="path7"
         d="m 269.25,55.41 c 0,16.89 13.7,30.582 30.6,30.582 16.9,0 30.6,-13.692 30.6,-30.582 0,-16.89 -13.7,-30.582 -30.6,-30.582 -16.9,0 -30.6,13.692 -30.6,30.582 z"
         style="fill:#e8dca2;fill-opacity:1;fill-rule:evenodd;stroke:#000000;stroke-width:1.5;stroke-linecap:butt;stroke-linejoin:miter;stroke-miterlimit:10;stroke-dasharray:none;stroke-opacity:1"
         transform="matrix(1.3333333,0,0,-1.3333333,0,441.6)"
         clip-path="url(#clipPath8)" />
    </g>
    <g
       id="g8"
       transform="matrix(0.26458333,0,0,0.26458333,12.435427,69.320843)">
      <path
         id="path9"
         d="m 282.99,102.98 16.86,19.01 16.86,-19.01 h -11.48 v -7.77 h -10.75 v 7.77 z"
         style="fill:#595959;fill-opacity:1;fill-rule:evenodd;stroke:#000000;stroke-width:1.5;stroke-linecap:butt;stroke-linejoin:miter;stroke-miterlimit:10;stroke-dasharray:none;stroke-opacity:1"
         transform="matrix(1.3333333,0,0,-1.3333333,0,441.6)"
         clip-path="url(#clipPath10)" />
    </g>
    <g
       id="g10"
       transform="matrix(0.26458333,0,0,0.26458333,12.435427,69.320843)">
      <path
         id="path11"
         d="m 578.93,52.07 c 0,16.89 13.7,30.582 30.61,30.582 16.9,0 30.6,-13.692 30.6,-30.582 0,-16.89 -13.7,-30.582 -30.6,-30.582 -16.91,0 -30.61,13.692 -30.61,30.582 z"
         style="fill:#fbe3d6;fill-opacity:1;fill-rule:evenodd;stroke:#000000;stroke-width:1.5;stroke-linecap:butt;stroke-linejoin:miter;stroke-miterlimit:10;stroke-dasharray:none;stroke-opacity:1"
         transform="matrix(1.3333333,0,0,-1.3333333,0,441.6)"
         clip-path="url(#clipPath12)" />
    </g>
    <g
       id="g12"
       transform="matrix(0.26458333,0,0,0.26458333,12.435427,69.320843)">
      <path
         id="path13"
         d="m 294.1,279.08 c 0,16.89 13.7,30.58 30.6,30.58 16.9,0 30.6,-13.69 30.6,-30.58 0,-16.89 -13.7,-30.58 -30.6,-30.58 -16.9,0 -30.6,13.69 -30.6,30.58 z"
         style="fill:#fbe3d6;fill-opacity:1;fill-rule:evenodd;stroke:#000000;stroke-width:1.5;stroke-linecap:butt;stroke-linejoin:miter;stroke-miterlimit:10;stroke-dasharray:none;stroke-opacity:1"
         transform="matrix(1.3333333,0,0,-1.3333333,0,441.6)"
         clip-path="url(#clipPath14)" />
    </g>
    <g
       id="g14"
       transform="matrix(0.26458333,0,0,0.26458333,12.435427,69.320843)">
      <path
         id="path15"
         d="m 307.23,293.27 -3.35,-3.61 0.33,-0.32 3.02,2.88 3,-2.88 0.33,0.32 z"
         style="fill:#000000;fill-opacity:1;fill-rule:evenodd;stroke:none"
         transform="matrix(1.3333333,0,0,-1.3333333,0,441.6)"
         clip-path="url(#clipPath16)" />
    </g>
    <g
       id="g16"
       transform="matrix(0.26458333,0,0,0.26458333,12.435427,69.320843)">
      <path
         id="path17"
         d="m 311.82,285.66 c -0.89,-0.16 -1.22,-0.79 -1.22,-1.29 0,-0.64 0.54,-0.86 0.91,-0.86 0.82,0 1.4,0.7 1.4,1.4 0,1.13 -1.32,1.63 -2.45,1.63 -1.67,0 -2.59,-1.59 -2.84,-2.09 -0.61,1.99 -2.3,2.09 -2.79,2.09 -2.78,0 -4.24,-3.48 -4.24,-4.06 0,-0.12 0.11,-0.24 0.29,-0.24 0.23,0 0.27,0.16 0.33,0.26 0.93,2.96 2.75,3.52 3.54,3.52 1.21,0 1.46,-1.13 1.46,-1.77 0,-0.58 -0.17,-1.19 -0.48,-2.47 l -0.92,-3.65 c -0.41,-1.59 -1.22,-3.06 -2.65,-3.06 -0.13,0 -0.81,0 -1.38,0.35 0.96,0.2 1.19,0.98 1.19,1.3 0,0.55 -0.41,0.85 -0.92,0.85 -0.66,0 -1.36,-0.54 -1.36,-1.41 0,-1.11 1.27,-1.61 2.45,-1.61 1.29,0 2.22,1.01 2.79,2.09 0.43,-1.57 1.79,-2.09 2.8,-2.09 2.77,0 4.25,3.48 4.25,4.07 0,0.14 -0.12,0.24 -0.29,0.24 -0.24,0 -0.26,-0.14 -0.35,-0.34 -0.74,-2.36 -2.3,-3.45 -3.53,-3.45 -0.95,0 -1.46,0.71 -1.46,1.8 0,0.58 0.1,1 0.53,2.75 l 0.97,3.62 c 0.39,1.59 1.31,2.78 2.57,2.78 0.06,0 0.82,0 1.4,-0.36 z"
         style="fill:#000000;fill-opacity:1;fill-rule:evenodd;stroke:none"
         transform="matrix(1.3333333,0,0,-1.3333333,0,441.6)"
         clip-path="url(#clipPath18)" />
    </g>
    <g
       id="g18"
       transform="matrix(0.26458333,0,0,0.26458333,12.435427,69.320843)">
      <path
         id="path19"
         d="m 319.37,283.18 c 0.02,0.08 0.06,0.18 0.06,0.28 0,0.18 -0.19,0.18 -0.23,0.18 -0.02,0 -0.7,-0.06 -1.05,-0.08 -0.31,-0.02 -0.59,-0.06 -0.94,-0.08 -0.45,-0.04 -0.58,-0.06 -0.58,-0.38 0,-0.21 0.19,-0.21 0.37,-0.21 0.97,0 0.97,-0.16 0.97,-0.34 0,-0.08 0,-0.12 -0.1,-0.44 l -2.7,-10.57 c -0.08,-0.28 -0.08,-0.32 -0.08,-0.42 0,-0.42 0.33,-0.48 0.51,-0.48 0.54,0 0.64,0.4 0.81,0.96 l 0.88,3.47 c 1.36,-0.14 2.18,-0.71 2.18,-1.59 0,-0.1 0,-0.18 -0.06,-0.47 -0.09,-0.28 -0.09,-0.5 -0.09,-0.58 0,-1.07 0.72,-1.79 1.69,-1.79 0.86,0 1.32,0.76 1.46,1.03 0.41,0.68 0.66,1.73 0.66,1.79 0,0.1 -0.09,0.18 -0.21,0.18 -0.16,0 -0.18,-0.08 -0.25,-0.38 -0.26,-0.97 -0.67,-2.26 -1.62,-2.26 -0.39,0 -0.64,0.18 -0.64,0.89 0,0.36 0.09,0.76 0.17,1.04 0.06,0.33 0.06,0.35 0.06,0.57 0,1.08 -0.99,1.71 -2.73,1.93 0.67,0.4 1.35,1.13 1.62,1.39 1.09,1.18 1.81,1.77 2.69,1.77 0.43,0 0.54,-0.1 0.68,-0.22 -0.7,-0.06 -0.97,-0.55 -0.97,-0.91 0,-0.44 0.35,-0.6 0.62,-0.6 0.52,0 0.97,0.42 0.97,1.02 0,0.53 -0.43,1.09 -1.3,1.09 -1.03,0 -1.87,-0.72 -3.2,-2.19 -0.21,-0.22 -0.91,-0.93 -1.61,-1.19 z"
         style="fill:#000000;fill-opacity:1;fill-rule:evenodd;stroke:none"
         transform="matrix(1.3333333,0,0,-1.3333333,0,441.6)"
         clip-path="url(#clipPath20)" />
    </g>
    <g
       id="g20"
       transform="matrix(0.26458333,0,0,0.26458333,12.435427,69.320843)">
      <path
         id="path21"
         d="m 331.84,275.09 h 5.22 c 0.27,0 0.6,0 0.6,0.34 0,0.34 -0.33,0.34 -0.6,0.34 h -5.22 v 5.09 c 0,0.26 0,0.61 -0.33,0.61 -0.37,0 -0.37,-0.33 -0.37,-0.61 v -5.09 h -5.2 c -0.27,0 -0.6,0 -0.6,-0.34 0,-0.34 0.31,-0.34 0.6,-0.34 h 5.2 v -5.1 c 0,-0.26 0,-0.6 0.35,-0.6 0.35,0 0.35,0.32 0.35,0.6 z"
         style="fill:#000000;fill-opacity:1;fill-rule:evenodd;stroke:none"
         transform="matrix(1.3333333,0,0,-1.3333333,0,441.6)"
         clip-path="url(#clipPath22)" />
    </g>
    <g
       id="g22"
       transform="matrix(0.26458333,0,0,0.26458333,12.435427,69.320843)">
      <path
         id="path23"
         d="m 344.1,282.65 c 0,0.45 0,0.45 -0.37,0.45 -0.45,-0.49 -1.4,-1.17 -3.33,-1.17 v -0.55 c 0.43,0 1.38,0 2.4,0.49 v -9.62 c 0,-0.67 -0.06,-0.89 -1.7,-0.89 h -0.6 v -0.54 c 0.51,0.04 2.34,0.04 2.96,0.04 0.62,0 2.45,0 2.94,-0.04 v 0.54 h -0.58 c -1.66,0 -1.72,0.22 -1.72,0.89 z"
         style="fill:#000000;fill-opacity:1;fill-rule:evenodd;stroke:none"
         transform="matrix(1.3333333,0,0,-1.3333333,0,441.6)"
         clip-path="url(#clipPath24)" />
    </g>
    <g
       id="g24"
       transform="matrix(0.26458333,0,0,0.26458333,12.435427,69.320843)">
      <path
         id="path25"
         d="m 363.78,279.08 c 0,16.89 13.7,30.58 30.6,30.58 16.9,0 30.6,-13.69 30.6,-30.58 0,-16.89 -13.7,-30.58 -30.6,-30.58 -16.9,0 -30.6,13.69 -30.6,30.58 z"
         style="fill:#d1d1d1;fill-opacity:1;fill-rule:evenodd;stroke:#000000;stroke-width:1.5;stroke-linecap:butt;stroke-linejoin:miter;stroke-miterlimit:10;stroke-dasharray:none;stroke-opacity:1"
         transform="matrix(1.3333333,0,0,-1.3333333,0,441.6)"
         clip-path="url(#clipPath26)" />
    </g>
    <g
       id="g26"
       transform="matrix(0.26458333,0,0,0.26458333,12.435427,69.320843)">
      <path
         id="path27"
         d="m 390.78,293.79 -4.26,-4.26 0.42,-0.38 3.84,3.4 3.83,-3.4 0.41,0.38 z"
         style="fill:#000000;fill-opacity:1;fill-rule:evenodd;stroke:none"
         transform="matrix(1.3333333,0,0,-1.3333333,0,441.6)"
         clip-path="url(#clipPath28)" />
    </g>
    <g
       id="g28"
       transform="matrix(0.26458333,0,0,0.26458333,12.435427,69.320843)">
      <path
         id="path29"
         d="m 395.16,283.79 c -0.65,0 -0.97,0 -1.47,-0.38 -0.21,-0.14 -0.57,-0.62 -0.57,-1.12 0,-0.64 0.52,-1.03 1.18,-1.03 0.83,0 1.75,0.65 1.75,1.91 0,1.5 -1.6,2.67 -3.98,2.67 -4.53,0 -9.05,-4.5 -9.05,-8.98 0,-2.74 1.86,-5.22 5.39,-5.22 4.71,0 7.69,3.34 7.69,3.74 0,0.19 -0.21,0.36 -0.36,0.36 -0.11,0 -0.14,-0.05 -0.45,-0.33 -2.2,-2.67 -5.5,-3.15 -6.8,-3.15 -2.38,0 -3.17,1.91 -3.17,3.48 0,1.1 0.6,4.14 1.86,6.29 0.89,1.47 2.75,3.19 4.94,3.19 0.45,0 2.33,-0.07 3.04,-1.43 z"
         style="fill:#000000;fill-opacity:1;fill-rule:evenodd;stroke:none"
         transform="matrix(1.3333333,0,0,-1.3333333,0,441.6)"
         clip-path="url(#clipPath30)" />
    </g>
    <g
       id="g30"
       transform="matrix(0.26458333,0,0,0.26458333,12.435427,69.320843)">
      <path
         id="path31"
         d="m 402.95,281.85 c 0.03,0.1 0.08,0.21 0.08,0.33 0,0.22 -0.24,0.22 -0.29,0.22 -0.02,0 -0.89,-0.07 -1.33,-0.1 -0.39,-0.02 -0.76,-0.07 -1.21,-0.09 -0.57,-0.05 -0.73,-0.07 -0.73,-0.45 0,-0.24 0.24,-0.24 0.47,-0.24 1.23,0 1.23,-0.19 1.23,-0.41 0,-0.09 0,-0.14 -0.13,-0.52 l -3.43,-12.51 c -0.1,-0.33 -0.1,-0.38 -0.1,-0.5 0,-0.5 0.42,-0.57 0.65,-0.57 0.68,0 0.81,0.48 1.02,1.15 l 1.13,4.09 c 1.73,-0.16 2.77,-0.83 2.77,-1.88 0,-0.12 0,-0.21 -0.08,-0.55 -0.1,-0.33 -0.1,-0.59 -0.1,-0.69 0,-1.26 0.92,-2.12 2.15,-2.12 1.09,0 1.67,0.91 1.85,1.22 0.53,0.81 0.84,2.05 0.84,2.12 0,0.12 -0.1,0.21 -0.26,0.21 -0.21,0 -0.24,-0.09 -0.32,-0.45 -0.34,-1.14 -0.86,-2.67 -2.06,-2.67 -0.5,0 -0.81,0.22 -0.81,1.05 0,0.43 0.1,0.9 0.21,1.24 0.07,0.38 0.07,0.4 0.07,0.66 0,1.29 -1.25,2.03 -3.48,2.29 0.87,0.48 1.73,1.33 2.07,1.64 1.39,1.41 2.3,2.1 3.43,2.1 0.55,0 0.68,-0.12 0.86,-0.26 -0.89,-0.07 -1.23,-0.64 -1.23,-1.07 0,-0.53 0.45,-0.72 0.79,-0.72 0.65,0 1.23,0.5 1.23,1.22 0,0.62 -0.55,1.28 -1.65,1.28 -1.31,0 -2.38,-0.85 -4.08,-2.59 -0.26,-0.27 -1.15,-1.1 -2.04,-1.41 z"
         style="fill:#000000;fill-opacity:1;fill-rule:evenodd;stroke:none"
         transform="matrix(1.3333333,0,0,-1.3333333,0,441.6)"
         clip-path="url(#clipPath32)" />
    </g>
    <g
       id="g32"
       transform="matrix(0.26458333,0,0,0.26458333,12.435427,69.320843)">
      <path
         id="path33"
         d="m 433.46,279.08 c 0,16.89 13.7,30.58 30.6,30.58 16.9,0 30.6,-13.69 30.6,-30.58 0,-16.89 -13.7,-30.58 -30.6,-30.58 -16.9,0 -30.6,13.69 -30.6,30.58 z"
         style="fill:#e8dca2;fill-opacity:1;fill-rule:evenodd;stroke:#000000;stroke-width:1.5;stroke-linecap:butt;stroke-linejoin:miter;stroke-miterlimit:10;stroke-dasharray:none;stroke-opacity:1"
         transform="matrix(1.3333333,0,0,-1.3333333,0,441.6)"
         clip-path="url(#clipPath34)" />
    </g>
    <g
       id="g34"
       transform="matrix(0.26458333,0,0,0.26458333,12.435427,69.320843)">
      <path
         id="path35"
         d="m 458.85,291.95 -3.99,-4.46 0.39,-0.4 3.6,3.57 3.58,-3.57 0.4,0.4 z"
         style="fill:#000000;fill-opacity:1;fill-rule:evenodd;stroke:none"
         transform="matrix(1.3333333,0,0,-1.3333333,0,441.6)"
         clip-path="url(#clipPath36)" />
    </g>
    <g
       id="g36"
       transform="matrix(0.26458333,0,0,0.26458333,12.435427,69.320843)">
      <path
         id="path37"
         d="m 460.01,271.01 c 0.41,-1.85 1.96,-2.24 2.74,-2.24 1.03,0 1.82,0.69 2.33,1.79 0.56,1.2 0.98,3.14 0.98,3.24 0,0.18 -0.12,0.3 -0.32,0.3 -0.29,0 -0.32,-0.17 -0.46,-0.65 -0.59,-2.29 -1.16,-4.04 -2.46,-4.04 -0.98,0 -0.98,1.1 -0.98,1.53 0,0.74 0.1,1.09 0.42,2.46 0.25,0.9 0.47,1.8 0.66,2.72 l 1.33,5.36 c 0.22,0.82 0.22,0.9 0.22,1 0,0.5 -0.39,0.82 -0.86,0.82 -0.96,0 -1.18,-0.82 -1.37,-1.64 -0.32,-1.3 -2.09,-8.38 -2.31,-9.53 -0.02,0 -1.3,-2.72 -3.65,-2.72 -1.69,0 -2.01,1.5 -2.01,2.72 0,1.87 0.91,4.51 1.74,6.71 0.39,1.07 0.56,1.49 0.56,2.14 0,1.42 -1,2.65 -2.57,2.65 -2.97,0 -4.17,-4.79 -4.17,-5.04 0,-0.15 0.12,-0.3 0.34,-0.3 0.3,0 0.32,0.12 0.47,0.6 0.76,2.82 2.04,4.09 3.26,4.09 0.32,0 0.86,-0.05 0.86,-1.1 0,-0.85 -0.37,-1.82 -0.86,-3.07 -1.42,-3.91 -1.59,-5.18 -1.59,-6.15 0,-3.37 2.5,-3.89 3.82,-3.89 2.09,0 3.21,1.44 3.88,2.24 z"
         style="fill:#000000;fill-opacity:1;fill-rule:evenodd;stroke:none"
         transform="matrix(1.3333333,0,0,-1.3333333,0,441.6)"
         clip-path="url(#clipPath38)" />
    </g>
    <g
       id="g38"
       transform="matrix(0.26458333,0,0,0.26458333,12.435427,69.320843)">
      <path
         id="path39"
         d="m 473.34,279.45 c 0.02,0.1 0.07,0.23 0.07,0.35 0,0.22 -0.22,0.22 -0.27,0.22 -0.02,0 -0.83,-0.07 -1.25,-0.09 -0.37,-0.03 -0.71,-0.08 -1.13,-0.1 -0.53,-0.05 -0.68,-0.08 -0.68,-0.48 0,-0.25 0.22,-0.25 0.44,-0.25 1.15,0 1.15,-0.2 1.15,-0.42 0,-0.1 0,-0.15 -0.12,-0.55 l -3.21,-13.09 c -0.1,-0.35 -0.1,-0.4 -0.1,-0.52 0,-0.53 0.39,-0.6 0.61,-0.6 0.64,0 0.76,0.5 0.96,1.2 l 1.05,4.28 c 1.62,-0.17 2.6,-0.87 2.6,-1.97 0,-0.12 0,-0.22 -0.07,-0.57 -0.1,-0.35 -0.1,-0.62 -0.1,-0.72 0,-1.32 0.86,-2.22 2.01,-2.22 1.03,0 1.57,0.95 1.74,1.27 0.49,0.85 0.79,2.14 0.79,2.22 0,0.12 -0.1,0.22 -0.25,0.22 -0.2,0 -0.22,-0.1 -0.29,-0.47 -0.32,-1.2 -0.81,-2.79 -1.94,-2.79 -0.47,0 -0.76,0.22 -0.76,1.09 0,0.45 0.1,0.95 0.2,1.3 0.07,0.4 0.07,0.42 0.07,0.7 0,1.35 -1.18,2.12 -3.26,2.39 0.81,0.5 1.62,1.4 1.94,1.72 1.29,1.47 2.15,2.2 3.21,2.2 0.51,0 0.63,-0.13 0.81,-0.28 -0.84,-0.07 -1.16,-0.67 -1.16,-1.12 0,-0.55 0.42,-0.75 0.74,-0.75 0.61,0 1.15,0.53 1.15,1.27 0,0.65 -0.51,1.35 -1.54,1.35 -1.23,0 -2.23,-0.9 -3.83,-2.72 -0.24,-0.27 -1.08,-1.14 -1.91,-1.47 z"
         style="fill:#000000;fill-opacity:1;fill-rule:evenodd;stroke:none"
         transform="matrix(1.3333333,0,0,-1.3333333,0,441.6)"
         clip-path="url(#clipPath40)" />
    </g>
    <g
       id="g40"
       transform="matrix(0.26458333,0,0,0.26458333,12.435427,69.320843)">
      <path
         id="path41"
         d="m 597.66,61.116 c -0.99,-0.189 -1.35,-0.923 -1.35,-1.515 0,-0.757 0.59,-1.018 1,-1.018 0.92,0 1.56,0.829 1.56,1.657 0,1.326 -1.47,1.918 -2.72,1.918 -1.86,0 -2.89,-1.87 -3.16,-2.462 -0.69,2.344 -2.56,2.462 -3.11,2.462 -3.09,0 -4.72,-4.096 -4.72,-4.782 0,-0.142 0.12,-0.284 0.32,-0.284 0.25,0 0.3,0.189 0.37,0.308 1.03,3.48 3.07,4.143 3.93,4.143 1.35,0 1.63,-1.326 1.63,-2.084 0,-0.686 -0.18,-1.397 -0.53,-2.912 l -1.03,-4.285 c -0.45,-1.87 -1.35,-3.598 -2.95,-3.598 -0.14,0 -0.89,0 -1.53,0.402 1.07,0.237 1.33,1.16 1.33,1.539 0,0.639 -0.46,0.994 -1.03,0.994 -0.74,0 -1.51,-0.639 -1.51,-1.657 0,-1.302 1.41,-1.894 2.72,-1.894 1.44,0 2.47,1.184 3.11,2.462 0.48,-1.846 1.99,-2.462 3.11,-2.462 3.09,0 4.74,4.096 4.74,4.782 0,0.166 -0.14,0.284 -0.32,0.284 -0.28,0 -0.3,-0.165 -0.39,-0.402 -0.82,-2.77 -2.56,-4.048 -3.94,-4.048 -1.05,0 -1.62,0.828 -1.62,2.107 0,0.686 0.11,1.183 0.59,3.243 l 1.08,4.261 c 0.43,1.871 1.46,3.268 2.86,3.268 0.07,0 0.92,0 1.56,-0.427 z"
         style="fill:#000000;fill-opacity:1;fill-rule:evenodd;stroke:none"
         transform="matrix(1.3333333,0,0,-1.3333333,0,441.6)"
         clip-path="url(#clipPath42)" />
    </g>
    <g
       id="g42"
       transform="matrix(0.26458333,0,0,0.26458333,12.435427,69.320843)">
      <path
         id="path43"
         d="m 606.05,58.196 c 0.02,0.095 0.07,0.213 0.07,0.332 0,0.213 -0.21,0.213 -0.25,0.213 -0.03,0 -0.78,-0.071 -1.17,-0.095 -0.34,-0.024 -0.66,-0.071 -1.05,-0.095 -0.51,-0.047 -0.64,-0.071 -0.64,-0.449 0,-0.237 0.2,-0.237 0.41,-0.237 1.07,0 1.07,-0.19 1.07,-0.403 0,-0.094 0,-0.142 -0.11,-0.521 l -3,-12.428 c -0.09,-0.332 -0.09,-0.379 -0.09,-0.498 0,-0.497 0.37,-0.568 0.57,-0.568 0.6,0 0.71,0.474 0.9,1.136 l 0.98,4.072 c 1.51,-0.165 2.43,-0.828 2.43,-1.87 0,-0.118 0,-0.213 -0.07,-0.544 -0.1,-0.332 -0.1,-0.592 -0.1,-0.687 0,-1.255 0.81,-2.107 1.88,-2.107 0.96,0 1.47,0.9 1.63,1.208 0.45,0.805 0.73,2.035 0.73,2.107 0,0.118 -0.09,0.213 -0.23,0.213 -0.18,0 -0.21,-0.095 -0.28,-0.45 -0.29,-1.137 -0.75,-2.652 -1.8,-2.652 -0.44,0 -0.71,0.213 -0.71,1.042 0,0.426 0.09,0.9 0.18,1.231 0.07,0.379 0.07,0.402 0.07,0.663 0,1.278 -1.1,2.012 -3.04,2.273 0.75,0.473 1.51,1.325 1.8,1.633 1.22,1.397 2.02,2.083 3,2.083 0.48,0 0.6,-0.118 0.76,-0.26 -0.78,-0.071 -1.08,-0.639 -1.08,-1.065 0,-0.521 0.39,-0.711 0.69,-0.711 0.57,0 1.07,0.498 1.07,1.208 0,0.615 -0.48,1.278 -1.44,1.278 -1.14,0 -2.08,-0.852 -3.57,-2.58 -0.23,-0.261 -1.01,-1.089 -1.78,-1.397 z"
         style="fill:#000000;fill-opacity:1;fill-rule:evenodd;stroke:none"
         transform="matrix(1.3333333,0,0,-1.3333333,0,441.6)"
         clip-path="url(#clipPath44)" />
    </g>
    <g
       id="g44"
       transform="matrix(0.26458333,0,0,0.26458333,12.435427,69.320843)">
      <path
         id="path45"
         d="m 619.94,48.679 h 5.81 c 0.3,0 0.66,0 0.66,0.403 0,0.402 -0.36,0.402 -0.66,0.402 h -5.81 v 5.99 c 0,0.307 0,0.71 -0.37,0.71 -0.41,0 -0.41,-0.379 -0.41,-0.71 v -5.99 h -5.79 c -0.3,0 -0.66,0 -0.66,-0.402 0,-0.403 0.34,-0.403 0.66,-0.403 h 5.79 v -5.99 c 0,-0.307 0,-0.71 0.39,-0.71 0.39,0 0.39,0.379 0.39,0.71 z"
         style="fill:#000000;fill-opacity:1;fill-rule:evenodd;stroke:none"
         transform="matrix(1.3333333,0,0,-1.3333333,0,441.6)"
         clip-path="url(#clipPath46)" />
    </g>
    <g
       id="g46"
       transform="matrix(0.26458333,0,0,0.26458333,12.435427,69.320843)">
      <path
         id="path47"
         d="m 633.58,57.581 c 0,0.52 0,0.52 -0.41,0.52 -0.5,-0.568 -1.55,-1.373 -3.7,-1.373 v -0.639 c 0.48,0 1.53,0 2.67,0.568 V 45.341 c 0,-0.781 -0.07,-1.042 -1.9,-1.042 h -0.66 V 43.66 c 0.57,0.047 2.61,0.047 3.29,0.047 0.69,0 2.73,0 3.28,-0.047 v 0.639 h -0.64 c -1.86,0 -1.93,0.261 -1.93,1.042 z"
         style="fill:#000000;fill-opacity:1;fill-rule:evenodd;stroke:none"
         transform="matrix(1.3333333,0,0,-1.3333333,0,441.6)"
         clip-path="url(#clipPath48)" />
    </g>
    <g
       id="g48"
       transform="matrix(0.26458333,0,0,0.26458333,12.435427,69.320843)">
      <path
         id="path49"
         d="m 363.78,55.41 c 0,16.89 13.7,30.582 30.6,30.582 16.9,0 30.6,-13.692 30.6,-30.582 0,-16.89 -13.7,-30.582 -30.6,-30.582 -16.9,0 -30.6,13.692 -30.6,30.582 z"
         style="fill:#fbe3d6;fill-opacity:1;fill-rule:evenodd;stroke:#000000;stroke-width:1.5;stroke-linecap:butt;stroke-linejoin:miter;stroke-miterlimit:10;stroke-dasharray:none;stroke-opacity:1"
         transform="matrix(1.3333333,0,0,-1.3333333,0,441.6)"
         clip-path="url(#clipPath50)" />
    </g>
    <g
       id="g50"
       transform="matrix(0.26458333,0,0,0.26458333,12.435427,69.320843)">
      <path
         id="path51"
         d="m 377.52,102.98 16.86,19.01 16.86,-19.01 H 399.75 V 95.21 H 389 v 7.77 z"
         style="fill:#595959;fill-opacity:1;fill-rule:evenodd;stroke:#000000;stroke-width:1.5;stroke-linecap:butt;stroke-linejoin:miter;stroke-miterlimit:10;stroke-dasharray:none;stroke-opacity:1"
         transform="matrix(1.3333333,0,0,-1.3333333,0,441.6)"
         clip-path="url(#clipPath52)" />
    </g>
    <g
       id="g52"
       transform="matrix(0.26458333,0,0,0.26458333,12.435427,69.320843)">
      <path
         id="path53"
         d="m 396.46,61.498 c -0.93,-0.186 -1.28,-0.907 -1.28,-1.489 0,-0.744 0.57,-1 0.96,-1 0.87,0 1.47,0.814 1.47,1.628 0,1.303 -1.39,1.884 -2.58,1.884 -1.76,0 -2.74,-1.837 -3,-2.419 -0.65,2.303 -2.43,2.419 -2.95,2.419 -2.93,0 -4.47,-4.024 -4.47,-4.698 0,-0.14 0.1,-0.279 0.3,-0.279 0.24,0 0.28,0.186 0.35,0.302 0.97,3.419 2.91,4.07 3.73,4.07 1.28,0 1.54,-1.302 1.54,-2.046 0,-0.675 -0.17,-1.373 -0.5,-2.861 l -0.97,-4.21 c -0.44,-1.838 -1.28,-3.536 -2.8,-3.536 -0.13,0 -0.85,0 -1.46,0.396 1.02,0.232 1.26,1.139 1.26,1.511 0,0.628 -0.43,0.977 -0.98,0.977 -0.69,0 -1.43,-0.628 -1.43,-1.628 0,-1.279 1.35,-1.861 2.58,-1.861 1.37,0 2.35,1.163 2.96,2.419 0.45,-1.814 1.89,-2.419 2.95,-2.419 2.93,0 4.5,4.024 4.5,4.699 0,0.163 -0.13,0.279 -0.31,0.279 -0.26,0 -0.28,-0.163 -0.37,-0.395 -0.78,-2.722 -2.43,-3.978 -3.73,-3.978 -1,0 -1.54,0.814 -1.54,2.07 0,0.675 0.1,1.163 0.56,3.187 l 1.02,4.187 c 0.41,1.837 1.39,3.209 2.72,3.209 0.06,0 0.86,0 1.47,-0.418 z"
         style="fill:#000000;fill-opacity:1;fill-rule:evenodd;stroke:none"
         transform="matrix(1.3333333,0,0,-1.3333333,0,441.6)"
         clip-path="url(#clipPath54)" />
    </g>
    <g
       id="g54"
       transform="matrix(0.26458333,0,0,0.26458333,12.435427,69.320843)">
      <path
         id="path55"
         d="m 404.43,58.629 c 0.02,0.093 0.06,0.209 0.06,0.325 0,0.21 -0.19,0.21 -0.23,0.21 -0.03,0 -0.74,-0.07 -1.11,-0.093 -0.33,-0.024 -0.63,-0.07 -1,-0.093 -0.48,-0.047 -0.61,-0.07 -0.61,-0.442 0,-0.233 0.2,-0.233 0.39,-0.233 1.02,0 1.02,-0.186 1.02,-0.395 0,-0.093 0,-0.14 -0.11,-0.512 L 400,45.185 c -0.09,-0.326 -0.09,-0.372 -0.09,-0.489 0,-0.488 0.35,-0.558 0.55,-0.558 0.56,0 0.67,0.465 0.84,1.116 l 0.94,4.001 c 1.43,-0.163 2.3,-0.814 2.3,-1.837 0,-0.117 0,-0.21 -0.07,-0.535 -0.08,-0.326 -0.08,-0.582 -0.08,-0.675 0,-1.233 0.76,-2.07 1.78,-2.07 0.91,0 1.39,0.884 1.54,1.186 0.43,0.791 0.69,2.001 0.69,2.07 0,0.117 -0.08,0.21 -0.21,0.21 -0.18,0 -0.2,-0.093 -0.26,-0.442 -0.29,-1.117 -0.72,-2.605 -1.72,-2.605 -0.41,0 -0.67,0.209 -0.67,1.023 0,0.419 0.08,0.884 0.17,1.21 0.07,0.372 0.07,0.395 0.07,0.651 0,1.256 -1.05,1.977 -2.89,2.233 0.71,0.465 1.43,1.302 1.71,1.605 1.15,1.372 1.91,2.047 2.85,2.047 0.45,0 0.56,-0.117 0.71,-0.256 -0.73,-0.07 -1.02,-0.628 -1.02,-1.047 0,-0.512 0.37,-0.698 0.66,-0.698 0.54,0 1.02,0.489 1.02,1.186 0,0.605 -0.46,1.256 -1.37,1.256 -1.09,0 -1.98,-0.837 -3.39,-2.535 -0.22,-0.256 -0.96,-1.07 -1.69,-1.372 z"
         style="fill:#000000;fill-opacity:1;fill-rule:evenodd;stroke:none"
         transform="matrix(1.3333333,0,0,-1.3333333,0,441.6)"
         clip-path="url(#clipPath56)" />
    </g>
    <g
       id="g56"
       transform="matrix(0.26458333,0,0,0.26458333,12.435427,69.320843)">
      <path
         id="path57"
         d="m 174.52,55.41 c 0,16.89 13.7,30.582 30.6,30.582 16.9,0 30.6,-13.692 30.6,-30.582 0,-16.89 -13.7,-30.582 -30.6,-30.582 -16.9,0 -30.6,13.692 -30.6,30.582 z"
         style="fill:#d1d1d1;fill-opacity:1;fill-rule:evenodd;stroke:#000000;stroke-width:1.5;stroke-linecap:butt;stroke-linejoin:miter;stroke-miterlimit:10;stroke-dasharray:none;stroke-opacity:1"
         transform="matrix(1.3333333,0,0,-1.3333333,0,441.6)"
         clip-path="url(#clipPath58)" />
    </g>
    <g
       id="g58"
       transform="matrix(0.26458333,0,0,0.26458333,12.435427,69.320843)">
      <path
         id="path59"
         d="m 188.26,102.98 16.86,19.01 16.86,-19.01 H 210.5 v -7.77 h -10.75 v 7.77 z"
         style="fill:#595959;fill-opacity:1;fill-rule:evenodd;stroke:#000000;stroke-width:1.5;stroke-linecap:butt;stroke-linejoin:miter;stroke-miterlimit:10;stroke-dasharray:none;stroke-opacity:1"
         transform="matrix(1.3333333,0,0,-1.3333333,0,441.6)"
         clip-path="url(#clipPath60)" />
    </g>
    <g
       id="g60"
       transform="matrix(0.26458333,0,0,0.26458333,12.435427,69.320843)">
      <path
         id="path61"
         d="m 191.64,63.773 c -0.58,0 -0.86,0 -1.3,-0.424 -0.19,-0.159 -0.51,-0.688 -0.51,-1.244 0,-0.714 0.46,-1.138 1.04,-1.138 0.74,0 1.55,0.715 1.55,2.118 0,1.667 -1.41,2.964 -3.52,2.964 -4,0 -8,-5.002 -8,-9.978 0,-3.044 1.64,-5.797 4.76,-5.797 4.17,0 6.81,3.706 6.81,4.156 0,0.211 -0.19,0.397 -0.33,0.397 -0.09,0 -0.11,-0.053 -0.39,-0.371 -1.94,-2.964 -4.86,-3.494 -6.02,-3.494 -2.1,0 -2.8,2.118 -2.8,3.865 0,1.217 0.53,4.605 1.65,6.987 0.78,1.641 2.43,3.547 4.37,3.547 0.39,0 2.06,-0.08 2.69,-1.588 z"
         style="fill:#000000;fill-opacity:1;fill-rule:evenodd;stroke:none"
         transform="matrix(1.3333333,0,0,-1.3333333,0,441.6)"
         clip-path="url(#clipPath62)" />
    </g>
    <g
       id="g62"
       transform="matrix(0.26458333,0,0,0.26458333,12.435427,69.320843)">
      <path
         id="path63"
         d="m 198.54,61.62 c 0.02,0.105 0.07,0.238 0.07,0.37 0,0.238 -0.21,0.238 -0.26,0.238 -0.02,0 -0.78,-0.079 -1.18,-0.106 -0.34,-0.026 -0.67,-0.079 -1.06,-0.106 -0.51,-0.052 -0.65,-0.079 -0.65,-0.502 0,-0.265 0.21,-0.265 0.42,-0.265 1.09,0 1.09,-0.212 1.09,-0.45 0,-0.106 0,-0.159 -0.12,-0.582 l -3.03,-13.896 c -0.09,-0.371 -0.09,-0.424 -0.09,-0.556 0,-0.556 0.37,-0.635 0.57,-0.635 0.61,0 0.72,0.529 0.91,1.27 l 0.99,4.553 c 1.53,-0.185 2.46,-0.927 2.46,-2.091 0,-0.132 0,-0.238 -0.07,-0.609 -0.1,-0.37 -0.1,-0.662 -0.1,-0.767 0,-1.403 0.81,-2.356 1.9,-2.356 0.97,0 1.48,1.006 1.64,1.35 0.47,0.9 0.75,2.276 0.75,2.355 0,0.133 -0.1,0.239 -0.24,0.239 -0.18,0 -0.2,-0.106 -0.27,-0.503 -0.3,-1.271 -0.77,-2.965 -1.83,-2.965 -0.44,0 -0.72,0.239 -0.72,1.165 0,0.476 0.09,1.006 0.19,1.376 0.06,0.424 0.06,0.45 0.06,0.741 0,1.43 -1.11,2.25 -3.07,2.541 0.76,0.53 1.52,1.483 1.82,1.827 1.23,1.561 2.04,2.329 3.04,2.329 0.48,0 0.6,-0.133 0.76,-0.291 -0.79,-0.08 -1.09,-0.715 -1.09,-1.191 0,-0.583 0.4,-0.795 0.7,-0.795 0.58,0 1.09,0.556 1.09,1.35 0,0.689 -0.49,1.43 -1.46,1.43 -1.16,0 -2.11,-0.953 -3.61,-2.885 -0.24,-0.291 -1.02,-1.218 -1.81,-1.562 z"
         style="fill:#000000;fill-opacity:1;fill-rule:evenodd;stroke:none"
         transform="matrix(1.3333333,0,0,-1.3333333,0,441.6)"
         clip-path="url(#clipPath64)" />
    </g>
    <g
       id="g64"
       transform="matrix(0.26458333,0,0,0.26458333,12.435427,69.320843)">
      <path
         id="path65"
         d="m 218.12,50.953 c 0.37,0 0.74,0 0.74,0.476 0,0.503 -0.37,0.503 -0.74,0.503 h -11.51 c -0.34,0 -0.74,0 -0.74,-0.503 0,-0.476 0.4,-0.476 0.74,-0.476 z"
         style="fill:#000000;fill-opacity:1;fill-rule:evenodd;stroke:none"
         transform="matrix(1.3333333,0,0,-1.3333333,0,441.6)"
         clip-path="url(#clipPath66)" />
    </g>
    <g
       id="g66"
       transform="matrix(0.26458333,0,0,0.26458333,12.435427,69.320843)">
      <path
         id="path67"
         d="m 226.76,60.931 c 0,0.583 0,0.583 -0.42,0.583 -0.51,-0.636 -1.57,-1.536 -3.75,-1.536 v -0.714 c 0.49,0 1.55,0 2.71,0.635 V 47.247 c 0,-0.873 -0.07,-1.164 -1.92,-1.164 h -0.67 v -0.715 c 0.57,0.053 2.63,0.053 3.33,0.053 0.69,0 2.75,0 3.31,-0.053 v 0.715 h -0.65 c -1.87,0 -1.94,0.291 -1.94,1.164 z"
         style="fill:#000000;fill-opacity:1;fill-rule:evenodd;stroke:none"
         transform="matrix(1.3333333,0,0,-1.3333333,0,441.6)"
         clip-path="url(#clipPath68)" />
    </g>
    <g
       id="g68"
       transform="matrix(0.26458333,0,0,0.26458333,12.435427,69.320843)">
      <path
         id="path69"
         d="m 79.147,54.533 c 0,16.89 13.701,30.582 30.603,30.582 16.9,0 30.6,-13.692 30.6,-30.582 0,-16.89 -13.7,-30.582 -30.6,-30.582 -16.902,0 -30.603,13.692 -30.603,30.582 z"
         style="fill:#d9f2d0;fill-opacity:1;fill-rule:evenodd;stroke:#000000;stroke-width:1.5;stroke-linecap:butt;stroke-linejoin:miter;stroke-miterlimit:10;stroke-dasharray:none;stroke-opacity:1"
         transform="matrix(1.3333333,0,0,-1.3333333,0,441.6)"
         clip-path="url(#clipPath70)" />
    </g>
    <g
       id="g70"
       transform="matrix(0.26458333,0,0,0.26458333,12.435427,69.320843)">
      <path
         id="path71"
         d="m 92.887,102.11 16.863,19 16.86,-19 h -11.49 v -7.776 h -10.75 v 7.776 z"
         style="fill:#595959;fill-opacity:1;fill-rule:evenodd;stroke:#000000;stroke-width:1.5;stroke-linecap:butt;stroke-linejoin:miter;stroke-miterlimit:10;stroke-dasharray:none;stroke-opacity:1"
         transform="matrix(1.3333333,0,0,-1.3333333,0,441.6)"
         clip-path="url(#clipPath72)" />
    </g>
    <g
       id="g72"
       transform="matrix(0.26458333,0,0,0.26458333,12.435427,69.320843)">
      <path
         id="path73"
         d="m 88.921,55.571 c 0.822,0 2.937,0.044 4.44,0.572 2.349,0.836 2.561,2.531 2.561,3.059 0,1.276 -1.175,2.442 -3.219,2.442 -3.265,0 -7.964,-2.772 -7.964,-7.943 0,-3.059 1.88,-5.171 4.699,-5.171 4.229,0 6.907,3.08 6.907,3.455 0,0.176 -0.188,0.33 -0.329,0.33 -0.094,0 -0.118,-0.044 -0.4,-0.308 -1.973,-2.465 -4.933,-2.905 -6.108,-2.905 -1.785,0 -2.701,1.32 -2.701,3.477 0,0.396 0,1.122 0.47,2.992 z m -1.503,0.572 c 1.339,4.489 4.299,4.929 5.285,4.929 1.363,0 2.303,-0.77 2.303,-1.87 0,-3.059 -4.981,-3.059 -6.273,-3.059 z"
         style="fill:#000000;fill-opacity:1;fill-rule:evenodd;stroke:none"
         transform="matrix(1.3333333,0,0,-1.3333333,0,441.6)"
         clip-path="url(#clipPath74)" />
    </g>
    <g
       id="g74"
       transform="matrix(0.26458333,0,0,0.26458333,12.435427,69.320843)">
      <path
         id="path75"
         d="m 103.51,57.962 c 0.03,0.088 0.07,0.198 0.07,0.308 0,0.198 -0.21,0.198 -0.25,0.198 -0.03,0 -0.8,-0.066 -1.2,-0.088 -0.35,-0.022 -0.68,-0.066 -1.08,-0.088 -0.52,-0.044 -0.66,-0.066 -0.66,-0.418 0,-0.22 0.21,-0.22 0.42,-0.22 1.11,0 1.11,-0.176 1.11,-0.374 0,-0.088 0,-0.132 -0.12,-0.484 L 98.721,45.244 c -0.094,-0.308 -0.094,-0.352 -0.094,-0.462 0,-0.463 0.376,-0.529 0.588,-0.529 0.611,0 0.728,0.441 0.915,1.057 l 1.01,3.784 c 1.55,-0.154 2.49,-0.77 2.49,-1.738 0,-0.11 0,-0.198 -0.07,-0.506 -0.09,-0.308 -0.09,-0.55 -0.09,-0.638 0,-1.166 0.82,-1.959 1.92,-1.959 0.99,0 1.51,0.837 1.67,1.123 0.47,0.748 0.75,1.892 0.75,1.958 0,0.11 -0.09,0.198 -0.23,0.198 -0.19,0 -0.21,-0.088 -0.28,-0.418 -0.31,-1.056 -0.78,-2.464 -1.86,-2.464 -0.45,0 -0.73,0.198 -0.73,0.968 0,0.396 0.1,0.836 0.19,1.144 0.07,0.352 0.07,0.374 0.07,0.616 0,1.188 -1.13,1.87 -3.12,2.112 0.77,0.441 1.55,1.233 1.85,1.519 1.25,1.298 2.07,1.936 3.08,1.936 0.49,0 0.61,-0.11 0.77,-0.242 -0.79,-0.066 -1.1,-0.594 -1.1,-0.99 0,-0.484 0.4,-0.66 0.71,-0.66 0.58,0 1.1,0.462 1.1,1.122 0,0.572 -0.49,1.188 -1.48,1.188 -1.18,0 -2.14,-0.792 -3.67,-2.398 -0.23,-0.242 -1.03,-1.013 -1.83,-1.298 z"
         style="fill:#000000;fill-opacity:1;fill-rule:evenodd;stroke:none"
         transform="matrix(1.3333333,0,0,-1.3333333,0,441.6)"
         clip-path="url(#clipPath76)" />
    </g>
    <g
       id="g76"
       transform="matrix(0.26458333,0,0,0.26458333,12.435427,69.320843)">
      <path
         id="path77"
         d="m 123.39,49.094 c 0.37,0 0.75,0 0.75,0.396 0,0.419 -0.38,0.419 -0.75,0.419 h -11.68 c -0.35,0 -0.75,0 -0.75,-0.419 0,-0.396 0.4,-0.396 0.75,-0.396 z"
         style="fill:#000000;fill-opacity:1;fill-rule:evenodd;stroke:none"
         transform="matrix(1.3333333,0,0,-1.3333333,0,441.6)"
         clip-path="url(#clipPath78)" />
    </g>
    <g
       id="g78"
       transform="matrix(0.26458333,0,0,0.26458333,12.435427,69.320843)">
      <path
         id="path79"
         d="m 132.13,57.39 c 0,0.484 0,0.484 -0.42,0.484 -0.52,-0.528 -1.6,-1.276 -3.81,-1.276 v -0.594 c 0.5,0 1.58,0 2.75,0.528 V 46.014 c 0,-0.726 -0.07,-0.968 -1.95,-0.968 h -0.68 v -0.595 c 0.59,0.044 2.68,0.044 3.38,0.044 0.71,0 2.8,0 3.36,-0.044 v 0.595 h -0.66 c -1.9,0 -1.97,0.242 -1.97,0.968 z"
         style="fill:#000000;fill-opacity:1;fill-rule:evenodd;stroke:none"
         transform="matrix(1.3333333,0,0,-1.3333333,0,441.6)"
         clip-path="url(#clipPath80)" />
    </g>
    <g
       id="g80"
       transform="matrix(0.26458333,0,0,0.26458333,12.435427,69.320843)">
      <path
         id="path81"
         d="m 308.44,52.624 c 0,2.225 -0.04,5.989 -1.94,8.902 -1.67,2.555 -4.32,3.462 -6.63,3.462 -2.18,0 -4.9,-0.797 -6.64,-3.407 -1.76,-2.748 -1.97,-6.127 -1.97,-8.957 0,-2.061 0.07,-5.22 1.46,-7.968 1.91,-3.764 5.38,-4.259 7.15,-4.259 2.07,0 5.2,0.687 7.04,4.149 1.36,2.5 1.53,5.44 1.53,8.078 z m -8.57,-11.65 c -2.89,0 -4.59,2.006 -5.24,4.754 -0.48,2.143 -0.48,5.275 -0.48,7.308 0,2.803 0,5.11 0.58,7.336 0.85,3.077 3.37,4.039 5.14,4.039 1.83,0 4.21,-0.989 5.07,-3.957 0.57,-2.088 0.64,-4.506 0.64,-7.418 0,-2.363 0,-5.275 -0.54,-7.418 -0.96,-3.957 -3.61,-4.644 -5.17,-4.644 z"
         style="fill:#000000;fill-opacity:1;fill-rule:evenodd;stroke:none"
         transform="matrix(1.3333333,0,0,-1.3333333,0,441.6)"
         clip-path="url(#clipPath82)" />
    </g>
    <g
       id="g82"
       transform="matrix(0.26458333,0,0,0.26458333,12.435427,69.320843)">
      <path
         id="path83"
         d="m 556.33,194.96 c 0,2.33 -1.61,4.24 -3.65,4.24 h -4.37 v -0.38 h 0.29 c 0.92,0 0.94,-0.13 0.94,-0.57 v -6.44 c 0,-0.44 -0.02,-0.58 -0.94,-0.58 h -0.29 v -0.38 h 4.37 c 2,0 3.65,1.81 3.65,4.11 z m -1.19,0 c 0,-1.35 -0.23,-2.09 -0.66,-2.69 -0.24,-0.32 -0.92,-1.04 -2.12,-1.04 h -1.21 c -0.56,0 -0.59,0.09 -0.59,0.49 v 6.62 c 0,0.4 0.03,0.48 0.59,0.48 h 1.19 c 0.74,0 1.57,-0.27 2.17,-1.13 0.52,-0.72 0.63,-1.77 0.63,-2.73 z"
         style="fill:#000000;fill-opacity:1;fill-rule:evenodd;stroke:none"
         transform="matrix(1.3333333,0,0,-1.3333333,0,441.6)"
         clip-path="url(#clipPath84)" />
    </g>
    <g
       id="g84"
       transform="matrix(0.26458333,0,0,0.26458333,12.435427,69.320843)">
      <path
         id="path85"
         d="m 563.07,195.74 v 0.39 c -0.28,-0.03 -0.62,-0.04 -0.9,-0.04 l -1.03,0.04 v -0.39 c 0.37,-0.01 0.56,-0.22 0.56,-0.52 0,-0.13 -0.01,-0.15 -0.08,-0.29 l -1.2,-3.01 -1.32,3.28 c -0.05,0.13 -0.08,0.18 -0.08,0.23 0,0.31 0.45,0.31 0.68,0.31 v 0.39 l -1.31,-0.04 c -0.32,0 -0.8,0.01 -1.15,0.04 v -0.39 c 0.57,0 0.79,0 0.97,-0.43 l 1.78,-4.46 -0.29,-0.72 c -0.27,-0.67 -0.6,-1.51 -1.36,-1.51 -0.07,0 -0.34,0 -0.57,0.22 0.37,0.05 0.47,0.32 0.47,0.51 0,0.32 -0.23,0.51 -0.5,0.51 -0.24,0 -0.5,-0.16 -0.5,-0.53 0,-0.54 0.5,-0.98 1.1,-0.98 0.74,0 1.23,0.7 1.52,1.4 l 2.1,5.21 c 0.31,0.77 0.92,0.78 1.11,0.78 z"
         style="fill:#000000;fill-opacity:1;fill-rule:evenodd;stroke:none"
         transform="matrix(1.3333333,0,0,-1.3333333,0,441.6)"
         clip-path="url(#clipPath86)" />
    </g>
    <g
       id="g86"
       transform="matrix(0.26458333,0,0,0.26458333,12.435427,69.320843)">
      <path
         id="path87"
         d="m 569.69,190.85 v 0.38 c -0.62,0 -0.91,0 -0.93,0.37 v 2.34 c 0,1.05 0,1.42 -0.37,1.87 -0.16,0.2 -0.56,0.45 -1.25,0.45 -0.87,0 -1.43,-0.53 -1.77,-1.28 v 1.28 l -1.68,-0.13 v -0.39 c 0.84,0 0.93,-0.08 0.93,-0.68 v -3.27 c 0,-0.56 -0.13,-0.56 -0.93,-0.56 v -0.38 l 1.35,0.04 1.33,-0.04 v 0.38 c -0.79,0 -0.92,0 -0.92,0.56 v 2.25 c 0,1.26 0.84,1.95 1.6,1.95 0.76,0 0.89,-0.66 0.89,-1.36 v -2.84 c 0,-0.56 -0.13,-0.56 -0.93,-0.56 v -0.38 l 1.35,0.04 z"
         style="fill:#000000;fill-opacity:1;fill-rule:evenodd;stroke:none"
         transform="matrix(1.3333333,0,0,-1.3333333,0,441.6)"
         clip-path="url(#clipPath88)" />
    </g>
    <g
       id="g88"
       transform="matrix(0.26458333,0,0,0.26458333,12.435427,69.320843)">
      <path
         id="path89"
         d="m 575.83,191.95 v 0.68 h -0.31 v -0.68 c 0,-0.72 -0.29,-0.79 -0.42,-0.79 -0.39,0 -0.44,0.55 -0.44,0.61 v 2.44 c 0,0.52 0,0.99 -0.43,1.45 -0.47,0.48 -1.07,0.67 -1.64,0.67 -0.97,0 -1.8,-0.57 -1.8,-1.38 0,-0.37 0.24,-0.58 0.55,-0.58 0.33,0 0.55,0.25 0.55,0.57 0,0.15 -0.06,0.55 -0.61,0.56 0.32,0.43 0.91,0.56 1.29,0.56 0.59,0 1.27,-0.48 1.27,-1.56 v -0.45 c -0.62,-0.04 -1.45,-0.08 -2.2,-0.44 -0.89,-0.42 -1.2,-1.06 -1.2,-1.6 0,-0.99 1.16,-1.29 1.91,-1.29 0.79,0 1.34,0.49 1.57,1.07 0.05,-0.5 0.37,-1.01 0.92,-1.01 0.26,0 0.99,0.18 0.99,1.17 z m -1.99,0.62 c 0,-1.16 -0.86,-1.58 -1.4,-1.58 -0.59,0 -1.08,0.43 -1.08,1.04 0,0.67 0.5,1.69 2.48,1.75 z"
         style="fill:#000000;fill-opacity:1;fill-rule:evenodd;stroke:none"
         transform="matrix(1.3333333,0,0,-1.3333333,0,441.6)"
         clip-path="url(#clipPath90)" />
    </g>
    <g
       id="g90"
       transform="matrix(0.26458333,0,0,0.26458333,12.435427,69.320843)">
      <path
         id="path91"
         d="m 585.61,190.85 v 0.38 c -0.62,0 -0.91,0 -0.93,0.37 v 2.34 c 0,1.05 0,1.42 -0.37,1.87 -0.16,0.2 -0.56,0.45 -1.25,0.45 -1,0 -1.53,-0.74 -1.73,-1.2 -0.17,1.07 -1.05,1.2 -1.59,1.2 -0.87,0 -1.43,-0.53 -1.76,-1.28 v 1.28 l -1.68,-0.13 v -0.39 c 0.83,0 0.92,-0.08 0.92,-0.68 v -3.27 c 0,-0.56 -0.13,-0.56 -0.92,-0.56 v -0.38 l 1.34,0.04 1.34,-0.04 v 0.38 c -0.8,0 -0.93,0 -0.93,0.56 v 2.25 c 0,1.26 0.84,1.95 1.61,1.95 0.75,0 0.88,-0.66 0.88,-1.36 v -2.84 c 0,-0.56 -0.13,-0.56 -0.93,-0.56 v -0.38 l 1.35,0.04 1.33,-0.04 v 0.38 c -0.8,0 -0.93,0 -0.93,0.56 v 2.25 c 0,1.26 0.85,1.95 1.61,1.95 0.76,0 0.89,-0.66 0.89,-1.36 v -2.84 c 0,-0.56 -0.13,-0.56 -0.94,-0.56 v -0.38 l 1.36,0.04 z"
         style="fill:#000000;fill-opacity:1;fill-rule:evenodd;stroke:none"
         transform="matrix(1.3333333,0,0,-1.3333333,0,441.6)"
         clip-path="url(#clipPath92)" />
    </g>
    <g
       id="g92"
       transform="matrix(0.26458333,0,0,0.26458333,12.435427,69.320843)">
      <path
         id="path93"
         d="m 588.8,190.85 v 0.38 c -0.79,0 -0.84,0.06 -0.84,0.54 v 4.49 l -1.67,-0.13 v -0.39 c 0.78,0 0.89,-0.07 0.89,-0.67 v -3.28 c 0,-0.56 -0.13,-0.56 -0.94,-0.56 v -0.38 l 1.31,0.04 c 0.42,0 0.84,-0.03 1.25,-0.04 z m -0.66,7.38 c 0,0.34 -0.27,0.66 -0.63,0.66 -0.41,0 -0.64,-0.34 -0.64,-0.66 0,-0.32 0.27,-0.64 0.63,-0.64 0.4,0 0.64,0.34 0.64,0.64 z"
         style="fill:#000000;fill-opacity:1;fill-rule:evenodd;stroke:none"
         transform="matrix(1.3333333,0,0,-1.3333333,0,441.6)"
         clip-path="url(#clipPath94)" />
    </g>
    <g
       id="g94"
       transform="matrix(0.26458333,0,0,0.26458333,12.435427,69.320843)">
      <path
         id="path95"
         d="m 594.12,192.31 c 0,0.12 -0.12,0.12 -0.16,0.12 -0.11,0 -0.13,-0.05 -0.15,-0.12 -0.35,-1.14 -1.12,-1.29 -1.56,-1.29 -0.64,0 -1.69,0.53 -1.69,2.5 0,1.99 0.98,2.51 1.61,2.51 0.11,0 0.87,-0.02 1.28,-0.46 -0.49,-0.03 -0.56,-0.4 -0.56,-0.56 0,-0.32 0.21,-0.56 0.55,-0.56 0.31,0 0.55,0.21 0.55,0.57 0,0.84 -0.91,1.31 -1.83,1.31 -1.49,0 -2.58,-1.32 -2.58,-2.84 0,-1.56 1.18,-2.77 2.56,-2.77 1.6,0 1.98,1.47 1.98,1.59 z"
         style="fill:#000000;fill-opacity:1;fill-rule:evenodd;stroke:none"
         transform="matrix(1.3333333,0,0,-1.3333333,0,441.6)"
         clip-path="url(#clipPath96)" />
    </g>
    <g
       id="g96"
       transform="matrix(0.26458333,0,0,0.26458333,12.435427,69.320843)">
      <path
         id="path97"
         d="m 598.76,192.42 c 0,0.65 -0.36,1.01 -0.5,1.16 -0.39,0.39 -0.86,0.49 -1.36,0.59 -0.67,0.14 -1.47,0.29 -1.47,1 0,0.43 0.31,0.93 1.34,0.93 1.31,0 1.37,-1.1 1.39,-1.48 0.02,-0.11 0.15,-0.11 0.15,-0.11 0.15,0 0.15,0.06 0.15,0.29 v 1.23 c 0,0.21 0,0.3 -0.13,0.3 -0.06,0 -0.08,0 -0.23,-0.14 -0.05,-0.05 -0.16,-0.16 -0.21,-0.2 -0.45,0.34 -0.94,0.34 -1.12,0.34 -1.46,0 -1.91,-0.82 -1.91,-1.5 0,-0.43 0.19,-0.78 0.51,-1.05 0.38,-0.31 0.72,-0.38 1.58,-0.56 0.26,-0.04 1.24,-0.24 1.24,-1.11 0,-0.63 -0.42,-1.12 -1.35,-1.12 -1.01,0 -1.43,0.7 -1.66,1.74 -0.03,0.16 -0.04,0.21 -0.17,0.21 -0.15,0 -0.15,-0.1 -0.15,-0.31 v -1.62 c 0,-0.21 0,-0.29 0.13,-0.29 0.06,0 0.07,0.01 0.29,0.24 0.03,0.03 0.03,0.05 0.25,0.29 0.52,-0.52 1.06,-0.53 1.31,-0.53 1.37,0 1.92,0.82 1.92,1.7 z"
         style="fill:#000000;fill-opacity:1;fill-rule:evenodd;stroke:none"
         transform="matrix(1.3333333,0,0,-1.3333333,0,441.6)"
         clip-path="url(#clipPath98)" />
    </g>
    <g
       id="g98"
       transform="matrix(0.26458333,0,0,0.26458333,12.435427,69.320843)">
      <path
         id="path99"
         d="m 568.87,180.33 c 0,2.5 -1.8,4.47 -3.97,4.47 -2.14,0 -3.96,-1.95 -3.96,-4.47 0,-2.51 1.83,-4.41 3.96,-4.41 2.17,0 3.97,1.93 3.97,4.41 z m -1.23,0.17 c 0,-3.24 -1.64,-4.27 -2.74,-4.27 -1.13,0 -2.73,1.08 -2.73,4.27 0,3.16 1.74,4 2.73,4 1.04,0 2.74,-0.87 2.74,-4 z"
         style="fill:#000000;fill-opacity:1;fill-rule:evenodd;stroke:none"
         transform="matrix(1.3333333,0,0,-1.3333333,0,441.6)"
         clip-path="url(#clipPath100)" />
    </g>
    <g
       id="g100"
       transform="matrix(0.26458333,0,0,0.26458333,12.435427,69.320843)">
      <path
         id="path101"
         d="m 577.98,180.29 c 0,2.33 -1.6,4.24 -3.64,4.24 h -4.37 v -0.38 h 0.28 c 0.92,0 0.95,-0.13 0.95,-0.57 v -6.44 c 0,-0.44 -0.03,-0.58 -0.95,-0.58 h -0.28 v -0.38 h 4.37 c 2,0 3.64,1.81 3.64,4.11 z m -1.19,0 c 0,-1.35 -0.22,-2.09 -0.65,-2.69 -0.24,-0.32 -0.92,-1.04 -2.12,-1.04 h -1.22 c -0.55,0 -0.58,0.09 -0.58,0.49 v 6.61 c 0,0.41 0.03,0.49 0.58,0.49 h 1.2 c 0.74,0 1.57,-0.27 2.17,-1.13 0.52,-0.72 0.62,-1.77 0.62,-2.73 z"
         style="fill:#000000;fill-opacity:1;fill-rule:evenodd;stroke:none"
         transform="matrix(1.3333333,0,0,-1.3333333,0,441.6)"
         clip-path="url(#clipPath102)" />
    </g>
    <g
       id="g102"
       transform="matrix(0.26458333,0,0,0.26458333,12.435427,69.320843)">
      <path
         id="path103"
         d="m 586.44,179.34 h -0.29 c -0.3,-1.89 -0.58,-2.78 -2.62,-2.78 h -1.59 c -0.56,0 -0.59,0.09 -0.59,0.49 v 3.26 h 1.08 c 1.15,0 1.28,-0.38 1.28,-1.42 h 0.3 v 3.24 h -0.3 c 0,-1.06 -0.13,-1.44 -1.28,-1.44 h -1.08 v 2.94 c 0,0.4 0.03,0.49 0.59,0.49 h 1.54 c 1.82,0 2.14,-0.67 2.33,-2.38 h 0.31 l -0.34,2.76 h -6.72 v -0.38 h 0.29 c 0.91,0 0.94,-0.14 0.94,-0.57 v -6.41 c 0,-0.44 -0.03,-0.58 -0.94,-0.58 h -0.29 v -0.38 h 6.88 z"
         style="fill:#000000;fill-opacity:1;fill-rule:evenodd;stroke:none"
         transform="matrix(1.3333333,0,0,-1.3333333,0,441.6)"
         clip-path="url(#clipPath104)" />
    </g>
    <g
       id="g104"
       transform="matrix(0.26458333,0,0,0.26458333,12.435427,69.320843)">
      <path
         id="path105"
         d="M 664.51,128.7 H 546.74 c -2.92,0 -5.29,2.42 -5.29,5.41 v 63.41 c 0,2.99 2.37,5.42 5.29,5.42 h 117.77 c 2.92,0 5.29,-2.43 5.29,-5.42 v -63.41 c 0,-2.99 -2.37,-5.41 -5.29,-5.41 z"
         style="fill:none;stroke:#000000;stroke-width:1.0596;stroke-linecap:butt;stroke-linejoin:miter;stroke-miterlimit:10;stroke-dasharray:none;stroke-opacity:1"
         transform="matrix(1.3333333,0,0,-1.3333333,0,441.6)"
         clip-path="url(#clipPath106)" />
    </g>
    <g
       id="g106"
       transform="matrix(0.26458333,0,0,0.26458333,12.435427,69.320843)">
      <path
         id="path107"
         d="M 610.33,196.94 V 146.42"
         style="fill:none;stroke:#000000;stroke-width:0.52976;stroke-linecap:butt;stroke-linejoin:miter;stroke-miterlimit:10;stroke-dasharray:4.7679, 4.7679;stroke-dashoffset:0;stroke-opacity:1"
         transform="matrix(1.3333333,0,0,-1.3333333,0,441.6)"
         clip-path="url(#clipPath108)" />
    </g>
    <g
       id="g108"
       transform="matrix(0.26458333,0,0,0.26458333,12.435427,69.320843)">
      <path
         id="path109"
         d="M 554.61,145.32 H 666.03"
         style="fill:none;stroke:#000000;stroke-width:0.52976;stroke-linecap:butt;stroke-linejoin:miter;stroke-miterlimit:10;stroke-dasharray:none;stroke-opacity:1"
         transform="matrix(1.3333333,0,0,-1.3333333,0,441.6)"
         clip-path="url(#clipPath110)" />
    </g>
    <g
       id="g110"
       transform="matrix(0.26458333,0,0,0.26458333,12.435427,69.320843)">
      <path
         id="path111"
         d="m 598.72,139.06 h 22.937 v 13.551 H 598.72 Z"
         style="fill:#000000;fill-opacity:1;fill-rule:evenodd;stroke:#000000;stroke-width:1.0596;stroke-linecap:butt;stroke-linejoin:miter;stroke-miterlimit:10;stroke-dasharray:none;stroke-opacity:1"
         transform="matrix(1.3333333,0,0,-1.3333333,0,441.6)"
         clip-path="url(#clipPath112)" />
    </g>
    <g
       id="g112"
       transform="matrix(0.26458333,0,0,0.26458333,12.435427,69.320843)">
      <path
         id="path113"
         d="m 634.28,191.87 -4.72,2.47 -23,-46.02 4.71,-2.47 z"
         style="fill:#f9ae5b;fill-opacity:1;fill-rule:evenodd;stroke:none"
         transform="matrix(1.3333333,0,0,-1.3333333,0,441.6)"
         clip-path="url(#clipPath114)" />
    </g>
    <g
       id="g114"
       transform="matrix(0.26458333,0,0,0.26458333,12.435427,69.320843)">
      <path
         id="path115"
         d="m 612.5,148.31 c 0.68,1.37 0.18,3.02 -1.12,3.7 -1.3,0.69 -2.91,0.13 -3.59,-1.23 -0.68,-1.36 -0.17,-3.01 1.12,-3.7 1.3,-0.68 2.91,-0.13 3.59,1.23"
         style="fill:#3e65a9;fill-opacity:1;fill-rule:evenodd;stroke:none"
         transform="matrix(1.3333333,0,0,-1.3333333,0,441.6)"
         clip-path="url(#clipPath116)" />
    </g>
    <g
       id="g116"
       transform="matrix(0.26458333,0,0,0.26458333,12.435427,69.320843)">
      <path
         id="path117"
         d="m 618.18,194.57 c 0,0.27 0.05,0.55 0.15,0.84 0.1,0.29 0.23,0.54 0.4,0.76 0.17,0.21 0.35,0.33 0.53,0.36 h 0.03 c 0.02,0 0.04,0 0.05,0.01 0.14,-0.01 0.25,-0.08 0.32,-0.19 0.1,-0.16 0.15,-0.37 0.15,-0.63 0,-0.3 -0.06,-0.6 -0.17,-0.91 -0.12,-0.31 -0.26,-0.56 -0.44,-0.76 -0.18,-0.2 -0.35,-0.29 -0.51,-0.29 h -0.03 c -0.09,0 -0.17,0.02 -0.24,0.07 -0.06,0.06 -0.11,0.13 -0.15,0.21 -0.03,0.09 -0.05,0.17 -0.07,0.26 -0.02,0.09 -0.02,0.18 -0.02,0.27 m 1.33,1.43 c 0,0.26 -0.07,0.39 -0.21,0.39 -0.09,0 -0.18,-0.06 -0.26,-0.17 -0.09,-0.12 -0.16,-0.25 -0.22,-0.4 -0.05,-0.15 -0.09,-0.28 -0.13,-0.39 -0.03,-0.11 -0.04,-0.18 -0.05,-0.19 0.13,0 0.25,-0.01 0.38,-0.01 l 0.37,0.01 c 0,0 0.01,0.04 0.03,0.13 0.01,0.08 0.03,0.18 0.06,0.31 0.02,0.12 0.03,0.23 0.03,0.32 m -1.04,-1.69 c 0,-0.28 0.07,-0.41 0.21,-0.41 0.04,0 0.08,0.01 0.12,0.03 0.04,0.03 0.1,0.08 0.16,0.15 0.06,0.07 0.12,0.19 0.18,0.34 0.06,0.15 0.12,0.34 0.19,0.57 l 0.01,0.07 h -0.74 c 0,-0.01 -0.01,-0.06 -0.04,-0.15 -0.02,-0.09 -0.04,-0.19 -0.06,-0.31 -0.01,-0.11 -0.03,-0.21 -0.03,-0.29"
         style="fill:#000000;fill-opacity:1;fill-rule:evenodd;stroke:none"
         transform="matrix(1.3333333,0,0,-1.3333333,0,441.6)"
         clip-path="url(#clipPath118)" />
    </g>
    <g
       id="g118"
       transform="matrix(0.26458333,0,0,0.26458333,12.435427,69.320843)">
      <path
         id="path119"
         d="m 611.2,191.04 1.76,0.51 c 4.03,1.17 8.31,1.17 12.34,0 l 1.76,-0.51"
         style="fill:none;stroke:#000000;stroke-width:0.52976;stroke-linecap:butt;stroke-linejoin:miter;stroke-miterlimit:10;stroke-dasharray:none;stroke-opacity:1"
         transform="matrix(1.3333333,0,0,-1.3333333,0,441.6)"
         clip-path="url(#clipPath120)" />
    </g>
    <g
       id="g120"
       transform="matrix(0.26458333,0,0,0.26458333,12.435427,69.320843)">
      <path
         id="path121"
         d="m 613.32,189.4 0.24,0.48 -2.3,1.21 1.34,2.27 -0.44,0.27 -1.64,-2.75 z"
         style="fill:#000000;fill-opacity:1;fill-rule:evenodd;stroke:none"
         transform="matrix(1.3333333,0,0,-1.3333333,0,441.6)"
         clip-path="url(#clipPath122)" />
    </g>
    <g
       id="g122"
       transform="matrix(0.26458333,0,0,0.26458333,12.435427,69.320843)">
      <path
         id="path123"
         d="m 624.67,189.4 -0.24,0.48 2.3,1.21 -1.34,2.27 0.44,0.27 1.64,-2.75 z"
         style="fill:#000000;fill-opacity:1;fill-rule:evenodd;stroke:none"
         transform="matrix(1.3333333,0,0,-1.3333333,0,441.6)"
         clip-path="url(#clipPath124)" />
    </g>
    <g
       id="g124"
       transform="matrix(0.26458333,0,0,0.26458333,12.435427,69.320843)">
      <path
         id="path125"
         d="m 627.47,176.05 1.58,-0.57 c 2.75,-1 5.18,-2.77 7.02,-5.09 l 0.69,-0.88"
         style="fill:none;stroke:#000000;stroke-width:0.52976;stroke-linecap:butt;stroke-linejoin:miter;stroke-miterlimit:10;stroke-dasharray:none;stroke-opacity:1"
         transform="matrix(1.3333333,0,0,-1.3333333,0,441.6)"
         clip-path="url(#clipPath126)" />
    </g>
    <g
       id="g126"
       transform="matrix(0.26458333,0,0,0.26458333,12.435427,69.320843)">
      <path
         id="path127"
         d="m 633.86,169.49 0.07,0.53 2.56,-0.37 0.17,2.65 0.52,-0.04 -0.2,-3.22 z"
         style="fill:#000000;fill-opacity:1;fill-rule:evenodd;stroke:none"
         transform="matrix(1.3333333,0,0,-1.3333333,0,441.6)"
         clip-path="url(#clipPath128)" />
    </g>
    <g
       id="g128"
       transform="matrix(0.26458333,0,0,0.26458333,12.435427,69.320843)">
      <path
         id="path129"
         d="m 632.95,175.57 c 0,0.27 0.05,0.55 0.15,0.84 0.1,0.29 0.24,0.54 0.41,0.76 0.17,0.21 0.35,0.33 0.53,0.36 h 0.03 c 0.02,0 0.03,0 0.05,0 0.13,0 0.24,-0.07 0.32,-0.18 0.1,-0.16 0.15,-0.37 0.15,-0.63 0,-0.3 -0.06,-0.6 -0.18,-0.91 -0.11,-0.31 -0.26,-0.56 -0.44,-0.76 -0.17,-0.2 -0.34,-0.29 -0.51,-0.29 h -0.02 c -0.1,0 -0.17,0.02 -0.24,0.07 -0.07,0.06 -0.12,0.12 -0.15,0.21 -0.03,0.09 -0.06,0.17 -0.07,0.26 -0.02,0.09 -0.03,0.18 -0.03,0.27 m 1.34,1.43 c 0,0.26 -0.07,0.39 -0.21,0.39 -0.09,0 -0.18,-0.06 -0.27,-0.17 -0.08,-0.12 -0.15,-0.25 -0.21,-0.4 -0.06,-0.15 -0.1,-0.28 -0.13,-0.39 -0.03,-0.11 -0.05,-0.18 -0.05,-0.19 0.13,0 0.25,-0.01 0.37,-0.01 l 0.37,0.01 c 0,0 0.01,0.04 0.03,0.13 0.02,0.08 0.04,0.18 0.06,0.31 0.03,0.12 0.04,0.23 0.04,0.32 m -1.04,-1.69 c 0,-0.28 0.07,-0.41 0.21,-0.41 0.03,0 0.07,0.01 0.12,0.03 0.04,0.03 0.09,0.08 0.15,0.15 0.07,0.07 0.13,0.19 0.19,0.34 0.06,0.15 0.12,0.34 0.18,0.57 l 0.02,0.06 h -0.75 c 0,0 -0.01,-0.05 -0.03,-0.14 -0.02,-0.09 -0.04,-0.2 -0.06,-0.31 -0.02,-0.11 -0.03,-0.21 -0.03,-0.29"
         style="fill:#000000;fill-opacity:1;fill-rule:evenodd;stroke:none"
         transform="matrix(1.3333333,0,0,-1.3333333,0,441.6)"
         clip-path="url(#clipPath130)" />
    </g>
    <g
       id="g130"
       transform="matrix(0.26458333,0,0,0.26458333,12.435427,69.320843)">
      <path
         id="path131"
         d="m 633.81,178.18 c 0,0.07 0.02,0.13 0.06,0.17 0.05,0.04 0.11,0.06 0.17,0.06 0.06,0 0.11,-0.03 0.16,-0.07 0.04,-0.04 0.06,-0.09 0.06,-0.16 0,-0.08 -0.02,-0.14 -0.06,-0.18 -0.05,-0.04 -0.1,-0.06 -0.16,-0.06 -0.07,0 -0.12,0.02 -0.17,0.06 -0.04,0.04 -0.06,0.1 -0.06,0.18"
         style="fill:#000000;fill-opacity:1;fill-rule:evenodd;stroke:none"
         transform="matrix(1.3333333,0,0,-1.3333333,0,441.6)"
         clip-path="url(#clipPath132)" />
    </g>
    <g
       id="g132"
       transform="matrix(0.26458333,0,0,0.26458333,12.435427,69.320843)">
      <path
         id="path133"
         d="M 637.95,150 H 621.8"
         style="fill:none;stroke:#000000;stroke-width:0.52976;stroke-linecap:butt;stroke-linejoin:miter;stroke-miterlimit:10;stroke-dasharray:none;stroke-opacity:1"
         transform="matrix(1.3333333,0,0,-1.3333333,0,441.6)"
         clip-path="url(#clipPath134)" />
    </g>
    <g
       id="g134"
       transform="matrix(0.26458333,0,0,0.26458333,12.435427,69.320843)">
      <path
         id="path135"
         d="m 636.07,152.72 -0.35,-0.39 1.89,-1.81 -1.89,-1.8 0.35,-0.39 2.31,2.19 z"
         style="fill:#000000;fill-opacity:1;fill-rule:evenodd;stroke:none"
         transform="matrix(1.3333333,0,0,-1.3333333,0,441.6)"
         clip-path="url(#clipPath136)" />
    </g>
    <g
       id="g136"
       transform="matrix(0.26458333,0,0,0.26458333,12.435427,69.320843)">
      <path
         id="path137"
         d="m 637.05,154.85 c 0.01,0.11 0.08,0.23 0.2,0.37 0.12,0.15 0.27,0.22 0.44,0.22 0.09,0 0.18,-0.02 0.25,-0.07 0.07,-0.05 0.13,-0.1 0.16,-0.17 0.11,0.16 0.24,0.24 0.39,0.24 0.1,0 0.18,-0.03 0.25,-0.08 0.07,-0.06 0.1,-0.14 0.1,-0.23 0,-0.08 -0.01,-0.14 -0.05,-0.19 -0.04,-0.04 -0.07,-0.07 -0.1,-0.08 -0.04,-0.01 -0.07,-0.02 -0.09,-0.02 -0.05,0 -0.09,0.02 -0.12,0.05 -0.03,0.02 -0.05,0.06 -0.05,0.11 0,0.12 0.07,0.2 0.19,0.24 -0.02,0.04 -0.08,0.05 -0.15,0.05 -0.03,0 -0.06,0 -0.07,0 -0.1,-0.05 -0.17,-0.13 -0.22,-0.26 -0.15,-0.57 -0.23,-0.91 -0.23,-1 0,-0.08 0.03,-0.13 0.07,-0.16 0.04,-0.03 0.08,-0.05 0.13,-0.05 0.09,0 0.19,0.05 0.28,0.13 0.09,0.09 0.15,0.19 0.19,0.32 0,0.02 0.01,0.04 0.02,0.04 0.01,0 0.03,0 0.06,0.01 h 0.02 c 0.03,0 0.05,-0.01 0.05,-0.03 0,-0.01 0,-0.02 0,-0.05 -0.05,-0.14 -0.13,-0.28 -0.24,-0.39 -0.12,-0.11 -0.25,-0.17 -0.41,-0.17 -0.18,0 -0.32,0.08 -0.41,0.24 -0.1,-0.15 -0.22,-0.24 -0.36,-0.24 h -0.02 c -0.12,0 -0.21,0.04 -0.27,0.11 -0.05,0.06 -0.08,0.13 -0.08,0.21 0,0.08 0.02,0.15 0.07,0.2 0.05,0.05 0.11,0.08 0.17,0.08 0.11,0 0.17,-0.06 0.17,-0.16 0,-0.06 -0.02,-0.1 -0.05,-0.14 -0.03,-0.04 -0.06,-0.07 -0.09,-0.08 -0.02,-0.01 -0.04,-0.02 -0.05,-0.02 h -0.01 c 0,0 0.01,-0.01 0.03,-0.02 0.01,0 0.03,-0.01 0.06,-0.02 0.02,-0.01 0.05,-0.02 0.07,-0.02 0.09,0 0.17,0.06 0.24,0.18 0.02,0.04 0.05,0.13 0.09,0.26 0.03,0.14 0.07,0.28 0.1,0.42 0.04,0.15 0.06,0.23 0.06,0.26 0.02,0.07 0.02,0.12 0.02,0.15 0,0.07 -0.02,0.13 -0.06,0.16 -0.03,0.03 -0.08,0.04 -0.12,0.04 -0.11,0 -0.2,-0.04 -0.29,-0.12 -0.09,-0.08 -0.15,-0.19 -0.19,-0.32 -0.01,-0.02 -0.01,-0.04 -0.02,-0.04 -0.01,0 -0.03,0 -0.06,-0.01 h -0.05 c -0.02,0.02 -0.03,0.03 -0.03,0.05"
         style="fill:#000000;fill-opacity:1;fill-rule:evenodd;stroke:none"
         transform="matrix(1.3333333,0,0,-1.3333333,0,441.6)"
         clip-path="url(#clipPath138)" />
    </g>
    <g
       id="g138"
       transform="matrix(0.26458333,0,0,0.26458333,12.435427,69.320843)">
      <path
         id="path139"
         d="m 637.82,156.43 c 0,0.07 0.02,0.13 0.07,0.17 0.04,0.04 0.1,0.06 0.16,0.06 0.06,0 0.11,-0.03 0.16,-0.07 0.04,-0.04 0.06,-0.09 0.06,-0.16 0,-0.08 -0.02,-0.14 -0.06,-0.18 -0.05,-0.04 -0.1,-0.06 -0.16,-0.06 -0.07,0 -0.12,0.02 -0.16,0.06 -0.05,0.04 -0.07,0.1 -0.07,0.18"
         style="fill:#000000;fill-opacity:1;fill-rule:evenodd;stroke:none"
         transform="matrix(1.3333333,0,0,-1.3333333,0,441.6)"
         clip-path="url(#clipPath140)" />
    </g>
    <g
       id="g140"
       transform="matrix(0.26458333,0,0,0.26458333,12.435427,69.320843)">
      <path
         id="path141"
         d="m 554.82,135.89 h 3.15"
         style="fill:none;stroke:#000000;stroke-width:0.52976;stroke-linecap:butt;stroke-linejoin:miter;stroke-miterlimit:10;stroke-dasharray:none;stroke-opacity:1"
         transform="matrix(1.3333333,0,0,-1.3333333,0,441.6)"
         clip-path="url(#clipPath142)" />
    </g>
    <g
       id="g142"
       transform="matrix(0.26458333,0,0,0.26458333,12.435427,69.320843)">
      <path
         id="path143"
         d="M 564.13,135.89 H 659.5"
         style="fill:none;stroke:#000000;stroke-width:0.52976;stroke-linecap:butt;stroke-linejoin:miter;stroke-miterlimit:10;stroke-dasharray:4.6614, 4.6614;stroke-dashoffset:0;stroke-opacity:1"
         transform="matrix(1.3333333,0,0,-1.3333333,0,441.6)"
         clip-path="url(#clipPath144)" />
    </g>
    <g
       id="g144"
       transform="matrix(0.26458333,0,0,0.26458333,12.435427,69.320843)">
      <path
         id="path145"
         d="m 662.59,135.89 h 3.15"
         style="fill:none;stroke:#000000;stroke-width:0.52976;stroke-linecap:butt;stroke-linejoin:miter;stroke-miterlimit:10;stroke-dasharray:none;stroke-opacity:1"
         transform="matrix(1.3333333,0,0,-1.3333333,0,441.6)"
         clip-path="url(#clipPath146)" />
    </g>
    <g
       id="g146"
       transform="matrix(0.26458333,0,0,0.26458333,12.435427,69.320843)">
      <path
         id="path147"
         d="m 554.43,134.67 h 0.52441 v 3.4928 H 554.43 Z"
         style="fill:#000000;fill-opacity:1;fill-rule:evenodd;stroke:none"
         transform="matrix(1.3333333,0,0,-1.3333333,0,441.6)"
         clip-path="url(#clipPath148)" />
    </g>
    <g
       id="g148"
       transform="matrix(0.26458333,0,0,0.26458333,12.435427,69.320843)">
      <path
         id="path149"
         d="m 665.33,134.67 h 0.52441 v 3.4928 H 665.33 Z"
         style="fill:#000000;fill-opacity:1;fill-rule:evenodd;stroke:none"
         transform="matrix(1.3333333,0,0,-1.3333333,0,441.6)"
         clip-path="url(#clipPath150)" />
    </g>
    <g
       id="g150"
       transform="matrix(0.26458333,0,0,0.26458333,12.435427,69.320843)">
      <path
         id="path151"
         d="m 664.57,140.56 c 0.02,0.11 0.09,0.24 0.21,0.39 0.12,0.15 0.28,0.22 0.46,0.22 0.09,0 0.17,-0.02 0.25,-0.07 0.07,-0.05 0.13,-0.11 0.17,-0.18 0.11,0.17 0.24,0.25 0.39,0.25 0.1,0 0.19,-0.03 0.26,-0.09 0.07,-0.05 0.1,-0.13 0.11,-0.23 0,-0.08 -0.02,-0.14 -0.06,-0.19 -0.03,-0.05 -0.07,-0.08 -0.1,-0.09 -0.04,-0.01 -0.07,-0.01 -0.09,-0.01 -0.06,0 -0.1,0.01 -0.13,0.04 -0.03,0.03 -0.04,0.07 -0.04,0.12 0,0.12 0.06,0.2 0.19,0.25 -0.03,0.03 -0.08,0.05 -0.16,0.05 -0.03,0 -0.05,0 -0.07,-0.01 -0.1,-0.04 -0.17,-0.13 -0.22,-0.26 -0.16,-0.59 -0.24,-0.93 -0.24,-1.03 0,-0.08 0.02,-0.13 0.07,-0.16 0.04,-0.03 0.08,-0.05 0.13,-0.05 0.1,0 0.2,0.04 0.29,0.13 0.1,0.09 0.16,0.2 0.19,0.33 0.01,0.02 0.02,0.04 0.03,0.04 0,0 0.03,0 0.06,0.01 h 0.02 c 0.04,0 0.06,-0.01 0.06,-0.04 0,0 0,-0.01 -0.01,-0.04 -0.04,-0.15 -0.13,-0.28 -0.25,-0.4 -0.12,-0.12 -0.26,-0.18 -0.42,-0.18 -0.18,0 -0.32,0.09 -0.41,0.25 -0.11,-0.16 -0.24,-0.24 -0.38,-0.24 h -0.02 c -0.13,0 -0.22,0.03 -0.27,0.1 -0.06,0.07 -0.09,0.14 -0.09,0.22 0,0.08 0.03,0.15 0.08,0.21 0.04,0.05 0.1,0.08 0.17,0.08 0.11,0 0.17,-0.06 0.17,-0.17 0,-0.05 -0.01,-0.1 -0.05,-0.14 -0.03,-0.04 -0.06,-0.07 -0.09,-0.08 -0.03,-0.01 -0.04,-0.02 -0.05,-0.02 l -0.01,-0.01 c 0,0 0.01,0 0.02,-0.01 0.02,-0.01 0.04,-0.02 0.07,-0.03 0.02,-0.01 0.05,-0.01 0.07,-0.01 0.1,0 0.18,0.06 0.25,0.18 0.02,0.04 0.05,0.13 0.09,0.27 0.03,0.14 0.07,0.28 0.11,0.43 0.03,0.15 0.05,0.24 0.06,0.27 0.01,0.07 0.02,0.12 0.02,0.15 0,0.08 -0.02,0.13 -0.06,0.16 -0.04,0.03 -0.08,0.05 -0.13,0.05 -0.11,0 -0.21,-0.04 -0.3,-0.13 -0.09,-0.08 -0.15,-0.19 -0.19,-0.33 -0.01,-0.02 -0.01,-0.03 -0.02,-0.04 -0.01,0 -0.03,0 -0.07,0 h -0.05 c -0.01,0.01 -0.02,0.03 -0.02,0.04"
         style="fill:#000000;fill-opacity:1;fill-rule:evenodd;stroke:none"
         transform="matrix(1.3333333,0,0,-1.3333333,0,441.6)"
         clip-path="url(#clipPath152)" />
    </g>
    <g
       id="g152"
       transform="matrix(0.26458333,0,0,0.26458333,12.435427,69.320843)">
      <path
         id="path153"
         d="m 666.98,140.87 v 1.07 h 0.18 v -1.07 z m -0.43,0.44 v 0.18 h 1.04 v -0.18 z"
         style="fill:#000000;fill-opacity:1;fill-rule:evenodd;stroke:none"
         transform="matrix(1.3333333,0,0,-1.3333333,0,441.6)"
         clip-path="url(#clipPath154)" />
    </g>
    <g
       id="g154"
       transform="matrix(0.26458333,0,0,0.26458333,12.435427,69.320843)">
      <path
         id="path155"
         d="m 50.78,62.457 c 0,2.024 1.606,3.664 3.587,3.664 1.981,0 3.587,-1.64 3.587,-3.664 0,-2.023 -1.606,-3.663 -3.587,-3.663 -1.981,0 -3.587,1.64 -3.587,3.663 z"
         style="fill:#000000;fill-opacity:1;fill-rule:evenodd;stroke:#000000;stroke-width:1.5;stroke-linecap:butt;stroke-linejoin:miter;stroke-miterlimit:10;stroke-dasharray:none;stroke-opacity:1"
         transform="matrix(1.3333333,0,0,-1.3333333,0,441.6)"
         clip-path="url(#clipPath156)" />
    </g>
    <g
       id="g156"
       transform="matrix(0.26458333,0,0,0.26458333,12.435427,69.320843)">
      <path
         id="path157"
         d="m 36.186,62.097 c 0,2.023 1.606,3.664 3.587,3.664 1.981,0 3.587,-1.641 3.587,-3.664 0,-2.023 -1.606,-3.663 -3.587,-3.663 -1.981,0 -3.587,1.64 -3.587,3.663 z"
         style="fill:#000000;fill-opacity:1;fill-rule:evenodd;stroke:#000000;stroke-width:1.5;stroke-linecap:butt;stroke-linejoin:miter;stroke-miterlimit:10;stroke-dasharray:none;stroke-opacity:1"
         transform="matrix(1.3333333,0,0,-1.3333333,0,441.6)"
         clip-path="url(#clipPath158)" />
    </g>
    <g
       id="g158"
       transform="matrix(0.26458333,0,0,0.26458333,12.435427,69.320843)">
      <path
         id="path159"
         d="m 21.592,62.722 c 0,2.023 1.606,3.663 3.587,3.663 1.981,0 3.587,-1.64 3.587,-3.663 0,-2.023 -1.606,-3.664 -3.587,-3.664 -1.981,0 -3.587,1.641 -3.587,3.664 z"
         style="fill:#000000;fill-opacity:1;fill-rule:evenodd;stroke:#000000;stroke-width:1.5;stroke-linecap:butt;stroke-linejoin:miter;stroke-miterlimit:10;stroke-dasharray:none;stroke-opacity:1"
         transform="matrix(1.3333333,0,0,-1.3333333,0,441.6)"
         clip-path="url(#clipPath160)" />
    </g>
    <g
       id="g160"
       transform="matrix(0.26458333,0,0,0.26458333,12.435427,69.320843)">
      <path
         id="path161"
         d="m 498.58,275.32 h 88.4 c 15.76,0 28.53,-12.77 28.53,-28.53 v -20.38 h 11.42 l -16.31,-16.3 -16.3,16.3 h 11.41 v 20.38 c 0,10.35 -8.39,18.75 -18.75,18.75 h -88.4 z"
         style="fill:#e8dca2;fill-opacity:1;fill-rule:evenodd;stroke:#042433;stroke-width:1.5;stroke-linecap:butt;stroke-linejoin:miter;stroke-miterlimit:10;stroke-dasharray:none;stroke-opacity:1"
         transform="matrix(1.3333333,0,0,-1.3333333,0,441.6)"
         clip-path="url(#clipPath162)" />
    </g>
    <g
       id="g162"
       transform="matrix(0.26458333,0,0,0.26458333,12.435427,69.320843)">
      <path
         id="path163"
         d="M 627.8,111.17 610.93,92.169 594.07,111.17 h 11.49 v 7.78 h 10.75 v -7.78 z"
         style="fill:#595959;fill-opacity:1;fill-rule:evenodd;stroke:#000000;stroke-width:1.5;stroke-linecap:butt;stroke-linejoin:miter;stroke-miterlimit:10;stroke-dasharray:none;stroke-opacity:1"
         transform="matrix(1.3333333,0,0,-1.3333333,0,441.6)"
         clip-path="url(#clipPath164)" />
    </g>
    <g
       id="g164"
       transform="matrix(0.26458333,0,0,0.26458333,12.435427,69.320843)">
      <path
         id="path165"
         d="m 435.2,51.113 9.14,9.132 V 55.679 H 568.75 V 46.547 H 444.34 v -4.566 z"
         style="fill:#595959;fill-opacity:1;fill-rule:evenodd;stroke:#042433;stroke-width:1.5;stroke-linecap:butt;stroke-linejoin:miter;stroke-miterlimit:10;stroke-dasharray:none;stroke-opacity:1"
         transform="matrix(1.3333333,0,0,-1.3333333,0,441.6)"
         clip-path="url(#clipPath166)" />
    </g>
    <g
       id="g166"
       transform="matrix(0.26458333,0,0,0.26458333,12.435427,69.320843)">
      <path
         id="path167"
         d="M 0.07132813,2.578125e-4 4.5010156,-11.83568 H 6.1767969 L 10.536172,2.578125e-4 H 8.9072656 L 7.7822656,-3.3161484 H 2.8721094 L 1.7002344,2.578125e-4 Z M 3.3057031,-4.6403672 h 4.03125 L 5.3330469,-10.253648 Z m 8.7128909,7.7929688 v -11.71875 h 1.417969 l 0.04687,1.40625 c 0.304687,-0.459961 0.697265,-0.8320313 1.183593,-1.1132813 0.483399,-0.2871094 1.045899,-0.4335937 1.6875,-0.4335937 0.703125,0 1.306641,0.1640625 1.816407,0.4921875 0.506835,0.328125 0.896484,0.8203125 1.171875,1.4765625 0.28125,0.65625 0.421875,1.4765625 0.421875,2.4609375 0,0.9609375 -0.149415,1.7753906 -0.445313,2.4375 -0.290039,0.65625 -0.703125,1.15722653 -1.242187,1.49999996 -0.539063,0.33691407 -1.171875,0.50390625 -1.898438,0.50390625 -0.609375,0 -1.145508,-0.12304687 -1.605469,-0.36328125 -0.454101,-0.24902343 -0.820312,-0.5859375 -1.101562,-1.00781246 v 4.359375 z M 15.8975,-1.0427109 c 0.779297,0 1.365234,-0.28125 1.757813,-0.84375 0.398437,-0.5625 0.597656,-1.359375 0.597656,-2.390625 0,-1.0546875 -0.184571,-1.8574219 -0.550781,-2.4140625 -0.369141,-0.553711 -0.911133,-0.8320313 -1.628907,-0.8320313 -0.626953,0 -1.154297,0.1699219 -1.582031,0.5039063 -0.430664,0.328125 -0.767578,0.7148437 -1.007812,1.1601562 v 3.3046875 c 0.234375,0.4453125 0.550781,0.8085938 0.949218,1.0898438 0.398438,0.28125 0.884766,0.421875 1.464844,0.421875 z m 0,0"
         style="fill:#000000;fill-opacity:1;fill-rule:nonzero;stroke:none"
         aria-label="Ap"
         transform="matrix(1.3333333,0,0,1.3333333,581.05333,345.152)"
         clip-path="url(#clipPath168)" />
      <path
         id="path169"
         d="m 1.4184922,3.1526016 v -11.71875 h 1.4179687 l 0.046875,1.40625 c 0.3046875,-0.459961 0.6972657,-0.8320313 1.1835938,-1.1132813 0.4833984,-0.2871094 1.0458984,-0.4335937 1.6875,-0.4335937 0.703125,0 1.3066406,0.1640625 1.8164062,0.4921875 0.506836,0.328125 0.8964844,0.8203125 1.171875,1.4765625 0.28125,0.65625 0.421875,1.4765625 0.421875,2.4609375 0,0.9609375 -0.149414,1.7753906 -0.4453125,2.4375 -0.290039,0.65625 -0.703125,1.15722653 -1.2421875,1.49999996 -0.5390625,0.33691407 -1.171875,0.50390625 -1.8984375,0.50390625 -0.609375,0 -1.1455078,-0.12304687 -1.6054687,-0.36328125 C 3.5190781,-0.44798437 3.1528672,-0.78489844 2.8716172,-1.2067734 v 4.359375 z m 3.8789062,-4.1953125 c 0.7792969,0 1.3652344,-0.28125 1.7578125,-0.84375 0.3984375,-0.5625 0.5976563,-1.359375 0.5976563,-2.390625 0,-1.0546875 -0.1845703,-1.8574219 -0.5507813,-2.4140625 -0.3691406,-0.553711 -0.9111328,-0.8320313 -1.6289062,-0.8320313 -0.6269531,0 -1.1542969,0.1699219 -1.5820313,0.5039063 -0.430664,0.328125 -0.7675781,0.7148437 -1.0078125,1.1601562 v 3.3046875 c 0.234375,0.4453125 0.5507813,0.8085938 0.9492188,1.0898438 0.3984375,0.28125 0.8847656,0.421875 1.4648437,0.421875 z m 9.7822266,1.20703121 c -0.9375,0 -1.705078,-0.19335937 -2.296875,-0.5859375 -0.594727,-0.38964843 -1.037109,-0.91992191 -1.324219,-1.59375001 -0.28125,-0.6708984 -0.421875,-1.4238281 -0.421875,-2.2617187 0,-0.8730469 0.134766,-1.6435547 0.410157,-2.3085938 0.28125,-0.6621094 0.706054,-1.1835937 1.277343,-1.5585937 0.56836,-0.375 1.294922,-0.5625 2.179688,-0.5625 1.163086,0 2.074219,0.3515625 2.730469,1.0546875 0.662109,0.703125 0.996093,1.7109375 0.996093,3.0234375 0,0.09375 -0.0059,0.1992187 -0.01172,0.3164062 0,0.1171875 -0.0088,0.2050781 -0.02344,0.2578125 H 12.5015 c 0.0059,0.5566406 0.09668,1.0664063 0.269531,1.5351563 0.169922,0.46875 0.445313,0.84375 0.820313,1.125 0.375,0.28125 0.870117,0.42187496 1.488281,0.42187496 0.65625,0 1.166016,-0.15234376 1.535156,-0.45703126 0.366211,-0.3105469 0.556641,-0.7558594 0.574219,-1.3359375 h 1.453125 c -0.01758,0.6035156 -0.172852,1.1220703 -0.46875,1.5585938 -0.290039,0.43945309 -0.700195,0.77929684 -1.230469,1.01953121 -0.524414,0.234375 -1.145508,0.3515625 -1.863281,0.3515625 z M 12.513219,-5.1208359 H 17.189 c -0.02344,-0.796875 -0.234375,-1.40625 -0.632812,-1.828125 -0.398438,-0.421875 -0.949219,-0.6328125 -1.652344,-0.6328125 -0.720703,0 -1.283203,0.2109375 -1.6875,0.6328125 -0.407227,0.4160156 -0.641602,1.0253906 -0.703125,1.828125 z M 21.000523,2.578125e-4 V -8.5661484 h 1.40625 l 0.04687,1.3242187 c 0.263672,-0.3427734 0.644532,-0.6679687 1.136719,-0.9726562 0.492188,-0.3105469 1.119141,-0.46875 1.886719,-0.46875 0.9375,0 1.620117,0.2783203 2.050781,0.8320312 0.427735,0.5566406 0.644531,1.3330078 0.644531,2.3320313 V 2.578125e-4 H 26.707555 V -5.3083359 c 0,-0.413086 -0.04687,-0.7792969 -0.140625,-1.1015625 -0.08789,-0.328125 -0.243164,-0.5800782 -0.46875,-0.7617188 -0.228516,-0.1875 -0.550782,-0.28125 -0.972657,-0.28125 -0.641601,0 -1.180664,0.1464844 -1.617187,0.4335938 -0.430664,0.290039 -0.779297,0.6064453 -1.042969,0.9492187 V 2.578125e-4 Z M 33.850133,0.16432031 c -0.703125,0 -1.30957,-0.16699218 -1.816406,-0.50390625 -0.509766,-0.33398437 -0.902344,-0.83496096 -1.183594,-1.49999996 -0.275391,-0.6621094 -0.410156,-1.4882813 -0.410156,-2.4726563 0,-0.9667969 0.143554,-1.7753906 0.433593,-2.4257812 0.295899,-0.65625 0.714844,-1.1484375 1.253907,-1.4765625 0.539062,-0.328125 1.174804,-0.4921875 1.910156,-0.4921875 0.609375,0 1.139648,0.1347656 1.59375,0.3984375 0.451172,0.2666015 0.814453,0.6269531 1.089844,1.078125 V -11.83568 H 38.18607 V 2.578125e-4 H 36.803258 L 36.721227,-1.2536484 c -0.304688,0.42187496 -0.700196,0.76757809 -1.183594,1.03124996 -0.477539,0.2578125 -1.040039,0.38671875 -1.6875,0.38671875 z m 0.292969,-1.20703121 c 0.624023,0 1.142578,-0.1464844 1.558593,-0.4453125 0.421875,-0.2958985 0.761719,-0.6503907 1.019532,-1.0664063 v -3.3046875 c -0.243164,-0.4746094 -0.559571,-0.8701172 -0.949219,-1.1835937 -0.392578,-0.3105469 -0.878906,-0.46875 -1.464844,-0.46875 -0.782226,0 -1.371094,0.2783203 -1.769531,0.8320312 -0.392578,0.5566406 -0.585938,1.3447266 -0.585938,2.3671875 0,1.0634766 0.181641,1.875 0.550782,2.4375 0.375,0.5566406 0.919921,0.8320313 1.640625,0.8320313 z M 47.584508,2.578125e-4 c -0.697266,0 -1.227539,-0.1083984325 -1.59375,-0.3281250025 -0.369141,-0.21679687 -0.621094,-0.53320312 -0.761719,-0.94921871 -0.140625,-0.413086 -0.210937,-0.9082032 -0.210937,-1.4882813 v -4.6054687 h -1.429688 v -1.1953125 h 1.429688 V -10.52318 h 1.464843 v 1.9570316 h 2.109375 v 1.1953125 h -2.109375 v 4.5351562 c 0,0.5332031 0.06445,0.9433594 0.199219,1.2304688 0.140625,0.28125 0.47168,0.421875 0.996094,0.421875 h 0.925781 V 2.578125e-4 Z m 6.27832,0.1406249975 c -0.83789,0 -1.555664,-0.17578125 -2.15625,-0.52734375 -0.594726,-0.35742187 -1.048828,-0.86718746 -1.359375,-1.52343746 -0.313476,-0.6621094 -0.46875,-1.4472657 -0.46875,-2.3554688 0,-0.9287109 0.155274,-1.7255859 0.46875,-2.390625 0.310547,-0.6621094 0.764649,-1.1748047 1.359375,-1.5351562 0.600586,-0.3574219 1.31836,-0.5390625 2.15625,-0.5390625 0.858399,0 1.587891,0.1816406 2.191406,0.5390625 0.609375,0.3603515 1.072266,0.8730468 1.394532,1.5351562 0.328125,0.6650391 0.492187,1.4619141 0.492187,2.390625 0,0.9082031 -0.164062,1.6933594 -0.492187,2.3554688 -0.322266,0.65625 -0.785157,1.16601559 -1.394532,1.52343746 -0.603515,0.3515625 -1.333007,0.52734375 -2.191406,0.52734375 z m 0,-1.17187501 c 0.632813,0 1.136719,-0.1347656 1.511719,-0.4101562 0.375,-0.28125 0.644531,-0.6621094 0.808594,-1.1484375 0.164062,-0.4921875 0.246093,-1.0488282 0.246093,-1.6757813 0,-0.6328125 -0.08203,-1.1953125 -0.246093,-1.6875 -0.164063,-0.4980469 -0.433594,-0.890625 -0.808594,-1.171875 -0.375,-0.2871094 -0.878906,-0.4335937 -1.511719,-0.4335937 -0.618164,0 -1.107422,0.1464843 -1.464844,0.4335937 -0.360351,0.28125 -0.618164,0.6738281 -0.773437,1.171875 -0.158203,0.4921875 -0.234375,1.0546875 -0.234375,1.6875 0,0.6269531 0.07617,1.1835938 0.234375,1.6757813 0.155273,0.4863281 0.413086,0.8671875 0.773437,1.1484375 0.357422,0.2753906 0.84668,0.4101562 1.464844,0.4101562 z m 13.640625,1.18359376 c -0.773437,0 -1.461914,-0.1640625 -2.0625,-0.4921875 -0.594726,-0.328125 -1.060547,-0.81445316 -1.394531,-1.46484376 -0.336914,-0.65625 -0.503906,-1.4765625 -0.503906,-2.4609375 0,-0.984375 0.164062,-1.8046875 0.492187,-2.4609375 0.328125,-0.6621094 0.788086,-1.1601562 1.382813,-1.4882812 0.600586,-0.328125 1.294922,-0.4921875 2.085937,-0.4921875 0.66211,0 1.256836,0.1113281 1.78125,0.328125 0.530274,0.2109375 0.952149,0.5361328 1.265625,0.9726562 0.319336,0.4394531 0.492188,0.9902344 0.515625,1.6523438 h -1.453125 c -0.04101,-0.5449219 -0.243164,-0.975586 -0.609375,-1.2890625 -0.360351,-0.319336 -0.852539,-0.4804688 -1.476562,-0.4804688 -0.829102,0 -1.450196,0.2871094 -1.863282,0.8554688 -0.407226,0.571289 -0.609375,1.3710937 -0.609375,2.4023437 0,0.6884766 0.08789,1.2714844 0.269532,1.7460938 0.178711,0.477539 0.451172,0.84375 0.820312,1.1015625 0.375,0.2519531 0.834961,0.375 1.382813,0.375 0.624023,0 1.130859,-0.1582032 1.523437,-0.4804688 0.398438,-0.328125 0.603516,-0.8027344 0.621094,-1.4296875 h 1.453125 c -0.01758,0.6884766 -0.18457,1.2626953 -0.503906,1.7226563 -0.322266,0.46289059 -0.75586,0.80859371 -1.300782,1.04296871 -0.539062,0.22558594 -1.145507,0.33984375 -1.816406,0.33984375 z m 9.47168,-0.0117188 c -0.837891,0 -1.555664,-0.17578125 -2.15625,-0.52734375 -0.594727,-0.35742187 -1.048828,-0.86718741 -1.359375,-1.52343741 -0.313477,-0.6621095 -0.46875,-1.4472658 -0.46875,-2.3554689 0,-0.9287109 0.155273,-1.7255859 0.46875,-2.390625 0.310547,-0.6621094 0.764648,-1.1748047 1.359375,-1.5351562 0.600586,-0.3574219 1.318359,-0.5390625 2.15625,-0.5390625 0.858398,0 1.58789,0.1816406 2.191406,0.5390625 0.609375,0.3603516 1.072266,0.8730469 1.394531,1.5351563 0.328125,0.6650391 0.492188,1.4619141 0.492188,2.390625 0,0.9082031 -0.164063,1.6933594 -0.492188,2.3554688 -0.322265,0.65625 -0.785156,1.16601554 -1.394531,1.52343741 -0.603516,0.3515625 -1.333008,0.52734375 -2.191406,0.52734375 z m 0,-1.17187496 c 0.632812,0 1.136719,-0.1347656 1.511719,-0.4101562 0.375,-0.28125 0.644531,-0.6621095 0.808593,-1.1484376 0.164063,-0.4921875 0.246094,-1.0488282 0.246094,-1.6757812 0,-0.6328125 -0.08203,-1.1953125 -0.246094,-1.6875 -0.164062,-0.4980469 -0.433593,-0.890625 -0.808593,-1.171875 -0.375,-0.2871094 -0.878907,-0.4335937 -1.511719,-0.4335937 -0.618164,0 -1.107422,0.1464843 -1.464844,0.4335937 -0.360351,0.28125 -0.618164,0.6738281 -0.773437,1.171875 -0.158204,0.4921875 -0.234375,1.0546875 -0.234375,1.6875 0,0.6269531 0.07617,1.1835937 0.234375,1.6757812 0.155273,0.4863281 0.413086,0.8671876 0.773437,1.1484376 0.357422,0.2753905 0.84668,0.4101562 1.464844,0.4101562 z m 6.46875,1.0312499625 V -8.5661484 h 1.40625 l 0.04687,1.3242187 c 0.263672,-0.3427734 0.644531,-0.6679687 1.136719,-0.9726562 0.492187,-0.3105469 1.11914,-0.46875 1.886718,-0.46875 0.9375,0 1.620118,0.2783203 2.050782,0.8320312 0.427734,0.5566406 0.644531,1.3330078 0.644531,2.3320313 V 2.578125e-4 H 89.150914 V -5.3083359 c 0,-0.413086 -0.04687,-0.7792969 -0.140625,-1.1015625 -0.08789,-0.328125 -0.243164,-0.5800782 -0.46875,-0.7617188 -0.228516,-0.1875 -0.550781,-0.28125 -0.972656,-0.28125 -0.641602,0 -1.180664,0.1464844 -1.617188,0.4335938 -0.430664,0.290039 -0.779297,0.6064453 -1.042968,0.9492187 V 2.578125e-4 Z m 12.776367,0 c -0.697266,0 -1.227539,-0.1083984325 -1.59375,-0.3281250025 -0.369141,-0.21679687 -0.621094,-0.53320312 -0.761719,-0.94921866 -0.140625,-0.4130861 -0.210937,-0.9082033 -0.210937,-1.4882813 v -4.6054687 h -1.429688 v -1.1953126 h 1.429688 V -10.52318 h 1.464844 v 1.9570316 h 2.109375 v 1.1953125 h -2.109375 v 4.5351562 c 0,0.5332031 0.06445,0.9433594 0.199218,1.2304688 0.140625,0.28125 0.47168,0.421875 0.996094,0.421875 h 0.925781 V 2.578125e-4 Z m 6.39258,0.1640624975 c -0.9375,0 -1.70508,-0.19335937 -2.29688,-0.5859375 -0.594723,-0.38964843 -1.037106,-0.91992186 -1.324216,-1.59374996 -0.28125,-0.6708984 -0.421875,-1.4238281 -0.421875,-2.2617187 0,-0.873047 0.134766,-1.6435547 0.410157,-2.3085939 0.28125,-0.6621094 0.706054,-1.1835937 1.277344,-1.5585937 0.56836,-0.375 1.29492,-0.5625 2.17969,-0.5625 1.16308,0 2.07422,0.3515625 2.73047,1.0546876 0.66211,0.703125 0.99609,1.7109375 0.99609,3.0234375 0,0.09375 -0.006,0.1992187 -0.0117,0.3164062 0,0.1171875 -0.009,0.2050781 -0.0234,0.2578125 h -6.09375 c 0.006,0.5566406 0.0967,1.0664062 0.26953,1.5351562 0.16993,0.46875 0.44532,0.8437501 0.82032,1.1250001 0.375,0.28125 0.87011,0.42187491 1.48828,0.42187491 0.65625,0 1.16601,-0.15234371 1.53515,-0.45703121 0.36622,-0.3105469 0.55665,-0.7558595 0.57422,-1.3359375 h 1.45313 c -0.0176,0.6035156 -0.17285,1.1220703 -0.46875,1.5585938 -0.29004,0.43945304 -0.7002,0.77929679 -1.23047,1.01953116 -0.52441,0.234375 -1.14551,0.3515625 -1.86328,0.3515625 z m -2.56641,-5.28515616 h 4.67578 c -0.0234,-0.796875 -0.23437,-1.40625 -0.63281,-1.828125 -0.39844,-0.421875 -0.94922,-0.6328125 -1.65234,-0.6328125 -0.72071,0 -1.28321,0.2109375 -1.6875,0.6328125 -0.40723,0.4160155 -0.6416,1.0253905 -0.70313,1.828125 z m 6.90235,5.1210936625 3.14062,-4.6523436625 0.63281,-0.4804688 2.17969,-3.4335938 h 1.57031 l -2.9414,4.3125001 -0.5625,0.4687499 -2.46094,3.7851562625 z m 6.23437,0 -2.47266,-3.7851562625 -0.58593,-0.4570313 -2.89453,-4.3242187 h 1.57031 l 2.16797,3.4335937 0.59765,0.4335938 3.1875,4.6992187625 z m 5.91504,0 c -0.69727,0 -1.22754,-0.1083984325 -1.59375,-0.3281250025 -0.36914,-0.21679687 -0.62109,-0.53320312 -0.76172,-0.94921876 -0.14062,-0.413086 -0.21094,-0.9082032 -0.21094,-1.4882813 V -7.370836 h -1.42968 v -1.1953125 h 1.42968 V -10.52318 h 1.46485 v 1.9570316 h 2.10937 v 1.1953125 h -2.10937 v 4.5351562 c 0,0.5332031 0.0645,0.9433594 0.19922,1.2304688 0.14062,0.28125 0.47168,0.421875 0.99609,0.421875 h 0.92578 V 2.578125e-4 Z m 0,0"
         style="fill:#000000;fill-opacity:1;fill-rule:nonzero;stroke:none"
         aria-label="pend to context"
         transform="matrix(1.3333333,0,0,1.3333333,608.58133,345.152)"
         clip-path="url(#clipPath170)" />
    </g>
    <g
       id="g170"
       transform="matrix(0.26458333,0,0,0.26458333,12.435427,69.320843)">
      <path
         id="path171"
         d="M 308.14,229.06 325,242.2 341.86,229.06 h -11.48 v -13.64 h -10.76 v 13.64 z"
         style="fill:#595959;fill-opacity:1;fill-rule:evenodd;stroke:#000000;stroke-width:1.5;stroke-linecap:butt;stroke-linejoin:miter;stroke-miterlimit:10;stroke-dasharray:none;stroke-opacity:1"
         transform="matrix(1.3333333,0,0,-1.3333333,0,441.6)"
         clip-path="url(#clipPath172)" />
    </g>
    <g
       id="g172"
       transform="matrix(0.26458333,0,0,0.26458333,12.435427,69.320843)">
      <path
         id="path173"
         d="m 446.9,230.27 16.86,13.08 16.86,-13.08 h -11.49 v -13.7 h -10.75 v 13.7 z"
         style="fill:#595959;fill-opacity:1;fill-rule:evenodd;stroke:#000000;stroke-width:1.5;stroke-linecap:butt;stroke-linejoin:miter;stroke-miterlimit:10;stroke-dasharray:none;stroke-opacity:1"
         transform="matrix(1.3333333,0,0,-1.3333333,0,441.6)"
         clip-path="url(#clipPath174)" />
    </g>
    <g
       id="g174"
       transform="matrix(0.26458333,0,0,0.26458333,12.435427,69.320843)">
      <path
         id="path175"
         d="m 320.01,215.33 v 6.44 -3.22 h 149.21 v -6.43 H 320.01 v -3.22 z"
         style="fill:#595959;fill-opacity:1;fill-rule:evenodd;stroke:#042433;stroke-width:1.5;stroke-linecap:butt;stroke-linejoin:miter;stroke-miterlimit:10;stroke-dasharray:none;stroke-opacity:1"
         transform="matrix(1.3333333,0,0,-1.3333333,0,441.6)"
         clip-path="url(#clipPath176)" />
    </g>
    <g
       id="g176"
       transform="matrix(0.26458333,0,0,0.26458333,12.435427,69.320843)">
      <path
         id="path177"
         d="m 377.22,225.9 16.86,16.85 16.86,-16.85 H 399.45 V 206.76 H 388.7 v 19.14 z"
         style="fill:#595959;fill-opacity:1;fill-rule:evenodd;stroke:#000000;stroke-width:1.5;stroke-linecap:butt;stroke-linejoin:miter;stroke-miterlimit:10;stroke-dasharray:none;stroke-opacity:1"
         transform="matrix(1.3333333,0,0,-1.3333333,0,441.6)"
         clip-path="url(#clipPath178)" />
    </g>
  </g>
</svg>
